<svg id="check_icon" data-name="check icon" xmlns="http://www.w3.org/2000/svg" xmlns:xlink="http://www.w3.org/1999/xlink" width="47" height="47" viewBox="0 0 47 47">
  <defs>
    <clipPath id="clip-path">
      <rect id="사각형_1691" data-name="사각형 1691" width="47" height="47" fill="none"/>
    </clipPath>
  </defs>
  <g id="그룹_1566" data-name="그룹 1566" clip-path="url(#clip-path)">
    <path id="패스_796" data-name="패스 796" d="M47,23.5A23.5,23.5,0,1,1,23.5,0,23.5,23.5,0,0,1,47,23.5" fill="#f40"/>
    <path id="패스_797" data-name="패스 797" d="M70.127,112.779a2.951,2.951,0,0,1-2.28-.924q-3.807-3.585-7.6-7.187a3.1,3.1,0,0,1-.3-4.479,3.164,3.164,0,0,1,4.572-.076c1.628,1.5,3.244,3.007,4.825,4.552.457.447.707.495,1.182.005q6.846-7.048,13.74-14.049a4.97,4.97,0,0,1,2.145-1.61,3.1,3.1,0,0,1,3.134,5.172q-3.593,3.743-7.225,7.448-4.865,4.992-9.738,9.977a3.119,3.119,0,0,1-2.46,1.17" transform="translate(-51.366 -77.211)" fill="#fff"/>
  </g>
</svg>
