<svg id="카카오심볼" xmlns="http://www.w3.org/2000/svg" xmlns:xlink="http://www.w3.org/1999/xlink" width="69.499" height="61.777" viewBox="0 0 69.499 61.777">
  <defs>
    <clipPath id="clip-path">
      <rect id="사각형_1673" data-name="사각형 1673" width="67.246" height="61.777" fill="none"/>
    </clipPath>
    <clipPath id="clip-path-2">
      <path id="패스_782" data-name="패스 782" d="M15.136,32.25H18.6s.022,9.506,0,11.721c0,1.616,3.6,1.639,3.595.024l.017-11.621s1.159.008,3.443.01a1.7,1.7,0,0,0,0-3.386c-2.424,0-10.525-.066-10.525-.066-2.032,0-2.025,3.318,0,3.318" transform="translate(-13.611 -28.932)" fill="none"/>
    </clipPath>
    <clipPath id="clip-path-4">
      <path id="패스_784" data-name="패스 784" d="M37.952,32.9l1.926,6.034H35.864Zm-2.158-2.827c-.851,1.876-3.927,10.732-4.948,13.081-.74,1.7,2.445,3.082,3.184,1.385l.692-2.421h6.333s-.218.1.623,2.319c.681,1.8,3.969.552,3.287-1.246-.973-2.568-4.336-11.808-4.95-13.118a2.614,2.614,0,0,0-2.279-1.039,2.006,2.006,0,0,0-1.943,1.039" transform="translate(-30.735 -29.039)" fill="none"/>
    </clipPath>
    <clipPath id="clip-path-6">
      <path id="패스_786" data-name="패스 786" d="M55.057,30.634c.006,3.01.018,12.711.018,12.711s-.278,1.928,1.375,1.928,5.322-.018,6.949-.018,1.617-3.46-.01-3.46-4.595-.018-4.595-.018.014-8.973.01-11.152a1.9,1.9,0,0,0-3.747.008" transform="translate(-55.057 -29.044)" fill="none"/>
    </clipPath>
    <clipPath id="clip-path-8">
      <path id="패스_788" data-name="패스 788" d="M71.415,30.159c.037,1.32-.042,13.255-.041,14.14,0,1.4,3.554,1.393,3.553,0,0-1.621,0-4.7,0-4.7l1.044-.837,4.562,6.225c.923,1.216,3.825-.982,2.9-2.2L78.591,36.41s3.288-3.557,4.585-4.845c.757-.751-1.585-3.11-2.341-2.357-.733.727-5.884,5.884-5.884,5.884s.046-3.239,0-5.028c-.018-.68-.852-1.009-1.7-1.009-.913,0-1.846.376-1.828,1.1" transform="translate(-71.374 -29.055)" fill="none"/>
    </clipPath>
  </defs>
  <g id="그룹_1534" data-name="그룹 1534" transform="translate(1.127 0)">
    <g id="그룹_1519" data-name="그룹 1519">
      <g id="그룹_1518" data-name="그룹 1518" transform="translate(0 0)" clip-path="url(#clip-path)">
        <path id="패스_780" data-name="패스 780" d="M33.623,0C15.053,0,0,11.9,0,26.581,0,36.135,6.378,44.511,15.951,49.2c-.7,2.624-2.547,9.511-2.915,10.982-.456,1.828.668,1.805,1.407,1.316.579-.386,9.213-6.259,12.939-8.793a42.418,42.418,0,0,0,6.242.459c18.569,0,33.623-11.9,33.623-26.58S52.192,0,33.623,0" transform="translate(0 0)" fill="#371c1d"/>
        <path id="패스_781" data-name="패스 781" d="M15.136,32.251H18.6s.022,9.506,0,11.721c0,1.616,3.6,1.638,3.6.024l.016-11.621s1.159.008,3.443.01a1.7,1.7,0,0,0,0-3.385c-2.424,0-10.525-.067-10.525-.067-2.031,0-2.025,3.319,0,3.319" transform="translate(-4.97 -10.563)" fill="#f9e000"/>
      </g>
    </g>
    <g id="그룹_1521" data-name="그룹 1521" transform="translate(8.642 18.369)">
      <g id="그룹_1520" data-name="그룹 1520" clip-path="url(#clip-path-2)">
        <rect id="사각형_1674" data-name="사각형 1674" width="14.707" height="16.677" transform="translate(-0.51 0)" fill="#f9e000"/>
      </g>
    </g>
    <g id="그룹_1523" data-name="그룹 1523">
      <g id="그룹_1522" data-name="그룹 1522" transform="translate(0 0)" clip-path="url(#clip-path)">
        <path id="패스_783" data-name="패스 783" d="M37.952,32.905l1.926,6.034H35.864Zm-2.158-2.827c-.851,1.875-3.927,10.732-4.948,13.081-.739,1.7,2.445,3.082,3.183,1.385l.693-2.422h6.332s-.218.1.623,2.319c.681,1.8,3.969.551,3.287-1.246-.973-2.568-4.336-11.808-4.95-13.118a2.614,2.614,0,0,0-2.279-1.039,2,2,0,0,0-1.943,1.039" transform="translate(-11.221 -10.603)" fill="#f9e000"/>
      </g>
    </g>
    <g id="그룹_1525" data-name="그룹 1525" transform="translate(19.513 18.437)">
      <g id="그룹_1524" data-name="그룹 1524" clip-path="url(#clip-path-4)">
        <rect id="사각형_1676" data-name="사각형 1676" width="15.54" height="17.203" transform="translate(-0.628 0)" fill="#f9e000"/>
      </g>
    </g>
    <g id="그룹_1527" data-name="그룹 1527">
      <g id="그룹_1526" data-name="그룹 1526" transform="translate(0 0)" clip-path="url(#clip-path)">
        <path id="패스_785" data-name="패스 785" d="M55.057,30.634c.006,3.01.017,12.711.017,12.711s-.277,1.928,1.375,1.928,5.322-.018,6.948-.018,1.617-3.46-.008-3.46-4.6-.017-4.6-.017.014-8.973.009-11.153a1.9,1.9,0,0,0-3.746.009" transform="translate(-20.101 -10.604)" fill="#f9e000"/>
      </g>
    </g>
    <g id="그룹_1529" data-name="그룹 1529" transform="translate(34.956 18.44)">
      <g id="그룹_1528" data-name="그룹 1528" clip-path="url(#clip-path-6)">
        <rect id="사각형_1678" data-name="사각형 1678" width="10.228" height="16.229" transform="translate(-0.26 0)" fill="#f9e000"/>
      </g>
    </g>
    <g id="그룹_1531" data-name="그룹 1531">
      <g id="그룹_1530" data-name="그룹 1530" transform="translate(0 0)" clip-path="url(#clip-path)">
        <path id="패스_787" data-name="패스 787" d="M71.415,30.159c.036,1.32-.042,13.255-.041,14.14,0,1.4,3.554,1.393,3.553,0,0-1.62,0-4.7,0-4.7l1.044-.836,4.562,6.225c.923,1.216,3.825-.982,2.9-2.2L78.591,36.41s3.288-3.557,4.585-4.845c.757-.751-1.585-3.11-2.341-2.357-.733.726-5.884,5.884-5.884,5.884s.046-3.238,0-5.028c-.018-.679-.852-1.008-1.7-1.008-.913,0-1.847.376-1.828,1.1" transform="translate(-26.059 -10.608)" fill="#f9e000"/>
      </g>
    </g>
    <g id="그룹_1533" data-name="그룹 1533" transform="translate(45.315 18.447)">
      <g id="그룹_1532" data-name="그룹 1532" clip-path="url(#clip-path-8)">
        <rect id="사각형_1680" data-name="사각형 1680" width="12.984" height="17.751" transform="translate(-0.001 -0.6)" fill="#f9e000"/>
      </g>
    </g>
  </g>
  <rect id="사각형_1658" data-name="사각형 1658" width="69.499" height="61.777" transform="translate(0 0)" fill="none"/>
</svg>
