<svg id="그룹_1569" data-name="그룹 1569" xmlns="http://www.w3.org/2000/svg" xmlns:xlink="http://www.w3.org/1999/xlink" width="299.215" height="123.949" viewBox="0 0 299.215 123.949">
  <defs>
    <clipPath id="clip-path">
      <rect id="사각형_1692" data-name="사각형 1692" width="299.215" height="123.949" transform="translate(0 0)" fill="none"/>
    </clipPath>
  </defs>
  <g id="그룹_1568" data-name="그룹 1568" clip-path="url(#clip-path)">
    <path id="패스_1299" data-name="패스 1299" d="M141.43,12.426h18.3a21.682,21.682,0,0,1,8.246,1.392,10.969,10.969,0,0,1,5.094,3.932,10.359,10.359,0,0,1,1.714,5.935,9.038,9.038,0,0,1-2.265,6.242,10.626,10.626,0,0,1-6,3.3v.429a10.591,10.591,0,0,1,4.973,1.468,10.016,10.016,0,0,1,3.64,3.733,10.915,10.915,0,0,1,1.362,5.507,11.519,11.519,0,0,1-1.805,6.38,12.059,12.059,0,0,1-5.278,4.391,19.758,19.758,0,0,1-8.277,1.59h-19.7Zm16.583,18.3a6.986,6.986,0,0,0,4.422-1.393,4.474,4.474,0,0,0,1.7-3.687,4.383,4.383,0,0,0-1.606-3.579,6.732,6.732,0,0,0-4.391-1.316h-6.3v9.975Zm.675,17.562a8.418,8.418,0,0,0,5.2-1.331,4.473,4.473,0,0,0,1.713-3.748,5.215,5.215,0,0,0-1.8-4.176,7.215,7.215,0,0,0-4.925-1.515h-7.038v10.77Z" fill="#070303"/>
    <path id="패스_1300" data-name="패스 1300" d="M181.634,12.426h10.4v35.8h18.6v8.506H181.634Z" fill="#070303"/>
    <path id="패스_1301" data-name="패스 1301" d="M214.679,56.729l15.053-44.3h13.83l14.992,44.3h-11.2l-3-9.485h-15.42l-3,9.485Zm27.169-17.44-5.018-15.91h-.367l-5.017,15.91Z" fill="#070303"/>
    <path id="패스_1302" data-name="패스 1302" d="M268.129,12.426l9.547,18.6h.367l9.546-18.6h11.626L283.061,41.737V56.729h-10.4V41.737L256.441,12.426Z" fill="#070303"/>
    <path id="패스_1303" data-name="패스 1303" d="M141.43,67.22h18.3a21.682,21.682,0,0,1,8.246,1.392,10.969,10.969,0,0,1,5.094,3.932,10.361,10.361,0,0,1,1.714,5.935,9.038,9.038,0,0,1-2.265,6.242,10.626,10.626,0,0,1-6,3.3v.429a10.581,10.581,0,0,1,4.973,1.469,10.005,10.005,0,0,1,3.64,3.732,10.915,10.915,0,0,1,1.362,5.507,11.517,11.517,0,0,1-1.805,6.38,12.059,12.059,0,0,1-5.278,4.391,19.758,19.758,0,0,1-8.277,1.59h-19.7Zm16.583,18.3a6.985,6.985,0,0,0,4.422-1.392,4.478,4.478,0,0,0,1.7-3.688,4.384,4.384,0,0,0-1.606-3.579,6.732,6.732,0,0,0-4.391-1.316h-6.3v9.975Zm.675,17.562a8.418,8.418,0,0,0,5.2-1.331A4.474,4.474,0,0,0,165.6,98a5.217,5.217,0,0,0-1.8-4.177,7.225,7.225,0,0,0-4.925-1.515h-7.038v10.771Z" fill="#070303"/>
    <path id="패스_1304" data-name="패스 1304" d="M179.554,111.523l15.053-44.3h13.83l14.992,44.3h-11.2l-3-9.484h-15.42l-3,9.484Zm27.169-17.439-5.018-15.91h-.367l-5.017,15.91Z" fill="#070303"/>
    <path id="패스_1305" data-name="패스 1305" d="M228.141,67.22h10.4v35.8h18.6v8.506H228.141Z" fill="#070303"/>
    <path id="패스_1306" data-name="패스 1306" d="M262.592,67.22h10.4v35.8h18.6v8.506H262.592Z" fill="#070303"/>
    <path id="패스_1307" data-name="패스 1307" d="M35.529,57.012A84.338,84.338,0,0,1,63.037,0,61.967,61.967,0,0,1,76.662,1.756,74.416,74.416,0,0,0,45.468,57.012h7.869a37.656,37.656,0,0,1,2.069-7.671,44.968,44.968,0,0,1,3.736-7.5,52.714,52.714,0,0,1,4.845-6.613,56.875,56.875,0,0,1,5.627-5.7,59.933,59.933,0,0,1,9.751-6.942,74.355,74.355,0,0,1,10.3-4.852c3.471-1.337,6.952-2.428,10.412-3.381q.6-.165,1.19-.324a61.977,61.977,0,0,1,8.247,8.16C97.377,25.052,85.62,28.671,76.171,36.975,70.163,42.256,65.087,49.43,63.426,57.014h60.333a61.953,61.953,0,0,1,0,9.917H63.34A34.175,34.175,0,0,0,70.965,81.89C78.6,90.824,89.585,95.4,100.574,99.981l6.093,2.537,1.6.668a61.955,61.955,0,0,1-7.906,7.448l-1.738-.724-1.845-.768-.019-.008-2.881-1.2c-1.937-.814-3.908-1.658-5.892-2.557a102.88,102.88,0,0,1-10.143-5.2,61.644,61.644,0,0,1-9.772-7.088,50.515,50.515,0,0,1-4.111-4.141,48.135,48.135,0,0,1-4.716-6.307,44.321,44.321,0,0,1-3.67-7.214,37.933,37.933,0,0,1-2.229-8.052c-.023-.147-.045-.294-.067-.441H45.4a74.414,74.414,0,0,0,30.206,55.5,61.979,61.979,0,0,1-13.654,1.517A84.33,84.33,0,0,1,35.47,66.929H30.789A53.241,53.241,0,0,1,13.9,101.077,61.953,61.953,0,0,1,8.212,92.8,43.32,43.32,0,0,0,20.818,66.929H.2a61.953,61.953,0,0,1,0-9.917H20.825A43.322,43.322,0,0,0,8.222,31.13a61.937,61.937,0,0,1,5.687-8.28A53.242,53.242,0,0,1,30.79,57.012Z" fill="#070303"/>
  </g>
</svg>
