<svg xmlns="http://www.w3.org/2000/svg" xmlns:xlink="http://www.w3.org/1999/xlink" width="734.017" height="160.686" viewBox="0 0 734.017 160.686">
  <defs>
    <clipPath id="clip-path">
      <rect id="사각형_342" data-name="사각형 342" width="734.017" height="160.686" fill="none"/>
    </clipPath>
  </defs>
  <g id="그룹_460" data-name="그룹 460" transform="translate(0 0)">
    <g id="그룹_384" data-name="그룹 384" transform="translate(0 0)" clip-path="url(#clip-path)">
      <path id="패스_470" data-name="패스 470" d="M111.109,26.15h31.762a37.621,37.621,0,0,1,14.314,2.417,19.034,19.034,0,0,1,8.844,6.826A17.972,17.972,0,0,1,169,45.7a15.689,15.689,0,0,1-3.93,10.835,18.45,18.45,0,0,1-10.41,5.737v.743a18.334,18.334,0,0,1,8.63,2.551,17.355,17.355,0,0,1,6.322,6.479,18.963,18.963,0,0,1,2.363,9.562,19.991,19.991,0,0,1-3.134,11.074,20.916,20.916,0,0,1-9.163,7.621,34.252,34.252,0,0,1-14.367,2.762h-34.2ZM139.9,57.912a12.112,12.112,0,0,0,7.674-2.417,7.77,7.77,0,0,0,2.948-6.4,7.607,7.607,0,0,0-2.789-6.215,11.688,11.688,0,0,0-7.621-2.284H129.168V57.912ZM141.065,88.4q6.055,0,9.03-2.311a7.76,7.76,0,0,0,2.974-6.5,9.052,9.052,0,0,0-3.134-7.25q-3.133-2.683-8.551-2.631H129.168V88.4Z" transform="translate(80.552 18.958)" fill="#fff"/>
      <path id="패스_471" data-name="패스 471" d="M151.569,26.15h18.059V88.3h32.293V103.06H151.569Z" transform="translate(109.885 18.958)" fill="#fff"/>
      <path id="패스_472" data-name="패스 472" d="M184.823,103.061l26.134-76.912h24.007l26.027,76.912H241.549l-5.2-16.465h-26.77l-5.206,16.465Zm47.166-30.275-8.711-27.62h-.637l-8.711,27.62Z" transform="translate(133.994 18.957)" fill="#fff"/>
      <path id="패스_473" data-name="패스 473" d="M247.145,26.15l16.57,32.3h.64l16.57-32.3h20.184L273.065,77.035V103.06H255.006V77.035L226.854,26.15Z" transform="translate(164.466 18.958)" fill="#fff"/>
      <path id="패스_474" data-name="패스 474" d="M274.4,26.15h31.764a37.628,37.628,0,0,1,14.314,2.417,19.043,19.043,0,0,1,8.844,6.826,17.985,17.985,0,0,1,2.974,10.3,15.683,15.683,0,0,1-3.931,10.835,18.439,18.439,0,0,1-10.41,5.737v.743a18.347,18.347,0,0,1,8.632,2.551,17.351,17.351,0,0,1,6.32,6.479,18.964,18.964,0,0,1,2.363,9.562,20,20,0,0,1-3.133,11.074,20.915,20.915,0,0,1-9.163,7.621A34.252,34.252,0,0,1,308.6,103.06H274.4Zm28.788,31.762A12.108,12.108,0,0,0,310.86,55.5a7.765,7.765,0,0,0,2.948-6.4,7.611,7.611,0,0,0-2.788-6.215A11.693,11.693,0,0,0,303.4,40.6h-10.94V57.912Zm1.17,30.489q6.055,0,9.029-2.311a7.756,7.756,0,0,0,2.976-6.5,9.052,9.052,0,0,0-3.134-7.25q-3.133-2.683-8.551-2.631H292.458V88.4Z" transform="translate(198.933 18.958)" fill="#fff"/>
      <path id="패스_475" data-name="패스 475" d="M312.762,103.061,338.9,26.149H362.9l26.025,76.912H369.49L364.284,86.6H337.515l-5.206,16.465Zm47.166-30.275-8.711-27.62h-.637l-8.711,27.62Z" transform="translate(226.747 18.957)" fill="#fff"/>
      <path id="패스_476" data-name="패스 476" d="M361.659,26.15h18.06V88.3h32.292V103.06H361.659Z" transform="translate(262.197 18.958)" fill="#fff"/>
      <path id="패스_477" data-name="패스 477" d="M396.331,26.15h18.06V88.3h32.292V103.06H396.331Z" transform="translate(287.334 18.958)" fill="#fff"/>
      <path id="패스_478" data-name="패스 478" d="M46.06,73.909A109.325,109.325,0,0,1,81.721,0,80.234,80.234,0,0,1,99.385,2.275,96.469,96.469,0,0,0,58.946,73.909h10.2a48.757,48.757,0,0,1,2.681-9.945,58.437,58.437,0,0,1,4.844-9.727,68.348,68.348,0,0,1,6.281-8.573,73.875,73.875,0,0,1,7.295-7.383,77.519,77.519,0,0,1,12.642-9,96.181,96.181,0,0,1,13.344-6.291c4.5-1.734,9.015-3.148,13.5-4.383q.771-.215,1.542-.419a80.244,80.244,0,0,1,10.691,10.578c-15.728,3.71-30.97,8.4-43.219,19.168C90.96,54.779,84.379,64.08,82.226,73.91H160.44a80.377,80.377,0,0,1,0,12.856H82.114A44.289,44.289,0,0,0,92,106.161c9.9,11.582,24.139,17.517,38.384,23.453l7.9,3.29,2.077.864a80.166,80.166,0,0,1-10.25,9.656l-2.253-.938-2.393-1-.024-.01q-1.847-.771-3.735-1.559c-2.512-1.056-5.066-2.149-7.638-3.315a133.374,133.374,0,0,1-13.15-6.743,79.908,79.908,0,0,1-12.668-9.189,65.766,65.766,0,0,1-5.33-5.368,62.461,62.461,0,0,1-6.113-8.176,57.425,57.425,0,0,1-4.757-9.351,49.231,49.231,0,0,1-2.889-10.44c-.029-.19-.059-.38-.088-.571H58.86a96.469,96.469,0,0,0,39.159,71.954,80.406,80.406,0,0,1-17.7,1.966A109.33,109.33,0,0,1,45.983,86.765H39.916a69.033,69.033,0,0,1-21.9,44.27A80.326,80.326,0,0,1,10.646,120.3,56.16,56.16,0,0,0,26.989,86.765H.257a80.783,80.783,0,0,1,0-12.856H27A56.162,56.162,0,0,0,10.658,40.354a80.334,80.334,0,0,1,7.374-10.733A69.02,69.02,0,0,1,39.916,73.909Z" transform="translate(0 -0.001)" fill="#fff"/>
    </g>
  </g>
</svg>
