<?xml version="1.0" encoding="UTF-8"?>
<svg id="_레이어_1" data-name="레이어 1" xmlns="http://www.w3.org/2000/svg" version="1.1" xmlns:xlink="http://www.w3.org/1999/xlink" viewBox="0 0 1550 760">
  <defs>
    <style>
      .cls-1 {
        fill: #c75335;
      }

      .cls-1, .cls-2, .cls-3, .cls-4, .cls-5, .cls-6, .cls-7, .cls-8 {
        stroke-width: 0px;
      }

      .cls-2 {
        fill: #000;
      }

      .cls-3 {
        fill: #f2743d;
      }

      .cls-9 {
        clip-path: url(#clippath-2);
      }

      .cls-10 {
        isolation: isolate;
      }

      .cls-4 {
        fill: #f49149;
      }

      .cls-5 {
        fill: none;
      }

      .cls-11 {
        clip-path: url(#clippath-1);
      }

      .cls-6 {
        fill: #010000;
      }

      .cls-12 {
        clip-path: url(#clippath);
      }

      .cls-7 {
        fill: #707070;
      }

      .cls-13 {
        clip-path: url(#clippath-3);
      }

      .cls-8 {
        fill: #fff;
      }
    </style>
    <clipPath id="clippath">
      <rect class="cls-5" x="1469.5" y="2.34" width="80" height="79.61"/>
    </clipPath>
    <clipPath id="clippath-1">
      <rect class="cls-5" x="1469.5" y="459.25" width="80" height="79.61"/>
    </clipPath>
    <clipPath id="clippath-2">
      <rect class="cls-5" x=".5" y="80.94" width="80" height="79.61"/>
    </clipPath>
    <clipPath id="clippath-3">
      <rect class="cls-5" x=".5" y="498.05" width="80" height="79.61"/>
    </clipPath>
  </defs>
  <g id="_그룹_1631" data-name="그룹 1631">
    <g id="_빼기_2" data-name="빼기 2">
      <path class="cls-8" d="M1549,261.45h-684v-86h79v-73h605v159Z"/>
      <path class="cls-7" d="M1548.5,260.95V102.95h-604v73h-79v85h683M1549.5,261.95h0s-685,0-685,0v-87h79v-73h606v160Z"/>
    </g>
    <g id="_빼기_3" data-name="빼기 3">
      <path class="cls-8" d="M1549,718.56h-534v-93h163.5s.5,0,.5,0v-66h370v159Z"/>
      <path class="cls-7" d="M1548.5,718.06v-158h-369v66h-164v92h533M1549.5,719.06h0s-535,0-535,0v-94h164v-66h371v160Z"/>
    </g>
    <g id="_그룹_513" data-name="그룹 513">
      <g id="_매번_인원수가_부족해_게임을_뛰지_못해_아쉬운_우리_농구인들_" data-name="매번 인원수가 부족해 게임을 뛰지 못해 아쉬운 우리 농구인들 " class="cls-10">
        <g class="cls-10">
          <path class="cls-2" d="M968.4,132.04h16.7v26.7h-16.7v-26.7ZM981.5,155.64v-20.5h-9.4v20.5h9.4ZM1004.1,170.45h-3.7v-23h-6.1v20.8h-3.7v-40.3h3.7v16.3h6.1v-17.2h3.7v43.4Z"/>
          <path class="cls-2" d="M1046,159.14h-3.8v-16.7h-10.2v9.3h-19.8v-21.8h3.9v7.7h12.1v-7.7h3.8v9.3h10.2v-12.2h3.8v32.1ZM1028.2,148.54v-7.9h-12.1v7.9h12.1ZM1018,156.04h3.8v10.2h25.2v3.2h-29v-13.4Z"/>
        </g>
        <g class="cls-10">
          <path class="cls-2" d="M1078.28,129.34c6.8,0,12.1,4.7,12.1,11.2s-5.3,11.3-12.1,11.3-12.2-4.65-12.2-11.3,5.35-11.2,12.2-11.2ZM1078.28,146.44c3.35-.05,5.95-2.15,5.9-5.9.05-3.6-2.55-5.75-5.9-5.8-3.5.05-6.15,2.2-6.1,5.8-.05,3.75,2.6,5.85,6.1,5.9ZM1072.78,155.24h6.3v9.9h24.7v5h-31v-14.9ZM1102.58,158.45h-6.2v-31.9h6.2v31.9Z"/>
          <path class="cls-2" d="M1136.98,144.84l.3,4.5c-3.5.6-7.1,1-10.7,1.25v8.45h-6.3v6.1h27v5h-33.2v-13.3h6.2v-5.85c-3.95.15-7.75.15-11.1.15l-.8-4.9c8.2-.1,19.2-.15,28.6-1.4ZM1122.88,128.04c6.5,0,11.1,3.25,11.1,8s-4.6,7.8-11.1,7.8-11.15-3.05-11.2-7.8c.05-4.75,4.6-8,11.2-8ZM1122.88,139.34c3,0,5.15-1.15,5.2-3.3-.05-2.25-2.2-3.45-5.2-3.4-3.15-.05-5.3,1.15-5.3,3.4s2.15,3.3,5.3,3.3ZM1146.28,160.14h-6.3v-3.6h-8.5v-4.2h8.5v-25.8h6.3v33.6Z"/>
          <path class="cls-2" d="M1151.77,150.64h40.6v5.1h-17.3v15.2h-6.2v-15.2h-17.1v-5.1ZM1190.88,142.24l-2.4,5.1c-7.8-1.15-13.5-4.75-16.35-9.6-2.9,4.85-8.6,8.45-16.35,9.6l-2.4-5.1c10.1-1.25,15.45-7.05,15.4-12.3v-2.1h6.6v2.1c0,5.25,5.35,11.05,15.5,12.3Z"/>
          <path class="cls-2" d="M1211.83,136.14h-14.75v-5.1h21.1c-.05,13.3-5.2,24.8-20.1,32.1l-3.6-4.7c10.55-5.3,16.15-12.4,17.35-22.3ZM1230.08,143.54h6.3v5.1h-6.3v22.2h-6.3v-44.4h6.3v17.1Z"/>
          <path class="cls-2" d="M1290.28,157.04h-17.3v13.9h-6.2v-13.9h-17.1v-4.9h40.6v4.9ZM1254.37,128.24h6.2v5.1h18.7v-5.1h6.2v19.6h-31.1v-19.6ZM1279.28,142.84v-4.6h-18.7v4.6h18.7Z"/>
          <path class="cls-2" d="M1292.87,148.14h17.1v-5.8h6.2v5.8h17.3v5h-40.6v-5ZM1329.78,133.04h-12.2c.95,3.25,5.55,6.4,14.1,7.2l-2.2,4.9c-8.35-.85-14-4.05-16.35-8.4-2.35,4.35-7.9,7.55-16.25,8.4l-2.2-4.9c8.45-.8,13.05-4,14-7.2h-12.1v-4.9h33.2v4.9ZM1297.37,156.34h31.1v14.6h-6.2v-9.7h-24.9v-4.9Z"/>
          <path class="cls-2" d="M1357.58,138.24h-21.6v-5h7.8v-5.5h6.1v5.5h7.7v5ZM1346.87,140.24c5.7,0,9.75,4.35,9.8,10.5-.05,6.25-4.1,10.6-9.8,10.6s-9.8-4.35-9.8-10.6,4.15-10.5,9.8-10.5ZM1346.87,156.04c2.5.05,4.25-1.9,4.3-5.3-.05-3.3-1.8-5.35-4.3-5.3-2.55-.05-4.35,2-4.3,5.3-.05,3.4,1.75,5.35,4.3,5.3ZM1359.17,127.34h5.8v17.2h3.6v-18.1h6v44.5h-6v-21.4h-3.6v19.5h-5.8v-41.7Z"/>
        </g>
        <g class="cls-10">
          <path class="cls-2" d="M1406.31,135.74h-13v-3.2h16.8c0,4.3-.7,8.45-2.15,12.3h7.75v-16.7h3.7v40.1h-3.7v-20.3h-9.15c-2.65,5.05-6.85,9.5-12.95,13.1l-2.2-2.8c9.45-5.6,14.2-13.4,14.9-22.5ZM1428.51,170.45h-3.6v-43.4h3.6v43.4Z"/>
          <path class="cls-2" d="M1447.01,129.34c6.55,0,11.3,4.1,11.3,10.2s-4.75,10.05-11.3,10c-6.65.05-11.45-4.1-11.4-10-.05-6.1,4.75-10.2,11.4-10.2ZM1447.01,146.34c4.4,0,7.6-2.85,7.6-6.8s-3.2-6.95-7.6-6.9c-4.5-.05-7.7,2.8-7.7,6.9s3.2,6.8,7.7,6.8ZM1442.21,154.14h28.2v15.7h-28.2v-15.7ZM1466.61,166.65v-9.4h-20.6v9.4h20.6ZM1470.41,151.84h-3.8v-24.8h3.8v24.8Z"/>
          <path class="cls-2" d="M1477.81,145.84h39.5v3.1h-39.5v-3.1ZM1512.81,135.24c.05,4.9-5.6,7.6-15.3,7.6s-15.35-2.7-15.4-7.6c.05-4.8,5.75-7.45,15.4-7.5,9.7.05,15.35,2.7,15.3,7.5ZM1482.61,152.64h29.6v9.7h-25.8v4.5h27.1v3.1h-30.8v-10.4h25.8v-3.9h-25.9v-3ZM1497.51,139.94c7.25,0,11.45-1.7,11.4-4.7.05-2.85-4.15-4.55-11.4-4.6-7.15.05-11.4,1.75-11.3,4.6-.1,3,4.15,4.7,11.3,4.7Z"/>
        </g>
        <g class="cls-10">
          <path class="cls-2" d="M926.1,214.84l.2,2.9c-4.35.65-8.85,1-13.2,1.25v15.05h-3.8v-14.9c-4.5.1-8.8.1-12.7.1l-.5-3.2c8.8,0,19.95,0,30-1.2ZM899,195.14h11.1v3.2h-7.4v9.25c2.4-.05,4.95-.2,7.9-.85l.3,3.1c-3.9.85-7,.9-10.1.9h-1.8v-15.6ZM912.5,195.14h11.5v3.2h-7.7v9.3h8v3.1h-11.8v-15.6ZM932.6,235.45h-3.8v-43.4h3.8v43.4Z"/>
          <path class="cls-2" d="M966.8,222.94l-2.1,3c-5.1-2.25-9.45-7.25-11.5-13.25-2,6.35-6.4,11.85-11.4,14.35l-2.2-3c6.2-3,11.6-11.2,11.6-18.7v-5.7h-10.2v-3.2h24.4v3.2h-10.3v5.7c0,7.35,5.35,14.85,11.7,17.6ZM971.5,192.04h3.8v43.4h-3.8v-43.4Z"/>
          <path class="cls-2" d="M1029.8,208.34h-12.9v5.2h17.9v3.1h-39.5v-3.1h17.9v-5.2h-12.8v-14.5h29.4v14.5ZM1013.1,220.84v-1.5h3.8v1.5c.05,5.85,6.95,10.1,14.9,11.3l-1.6,3c-6.55-1.1-12.6-4.2-15.15-8.95-2.65,4.75-8.65,7.85-15.25,8.95l-1.5-3c7.85-1.2,14.8-5.45,14.8-11.3ZM1026,205.24v-8.3h-21.9v8.3h21.9Z"/>
          <path class="cls-2" d="M1060.1,202.64h-21.7v-3.1h9v-6.2h3.8v6.2h8.9v3.1ZM1049.3,205.54c5.4.05,9.35,4.1,9.4,9.9-.05,5.8-4,9.9-9.4,9.9s-9.4-4.1-9.4-9.9,3.95-9.85,9.4-9.9ZM1049.3,222.04c3.4,0,5.95-2.75,5.9-6.6.05-3.8-2.5-6.6-5.9-6.7-3.5.1-5.95,2.9-6,6.7.05,3.85,2.5,6.6,6,6.6ZM1062.4,193.04h3.6v17.3h5.8v-18.3h3.6v43.4h-3.6v-22h-5.8v19.8h-3.6v-40.2Z"/>
          <path class="cls-2" d="M1116.7,210.44c0,9.3-4.5,15.15-10.9,15.2-6.45-.05-11-5.9-10.9-15.2-.1-9.2,4.45-15.05,10.9-15.1,6.4.05,10.9,5.9,10.9,15.1ZM1105.8,222.14c4.3.05,7.25-4.6,7.2-11.7.05-7-2.9-11.65-7.2-11.7-4.3.05-7.3,4.7-7.3,11.7s3,11.75,7.3,11.7ZM1123.9,192.04h3.9v17.3h7.2v3.3h-7.2v22.8h-3.9v-43.4Z"/>
          <path class="cls-2" d="M1166.2,213.84l.3,2.8c-4.15.75-8.5,1.2-12.7,1.5v15.9h-3.8v-15.7c-4.4.2-8.55.2-12.2.2l-.5-3.3c8.2.05,19.25-.05,28.9-1.4ZM1164.5,207.34l-1.8,3c-5.15-1.35-9.1-4.2-11-8.1-1.95,4.35-6.1,7.65-11.3,9.2l-1.9-3.1c6.6-1.75,11.15-6.35,11.2-11.8v-2.6h3.9v2.6c-.05,5.05,4.4,9.2,10.9,10.8ZM1169.4,192.04h3.8v43.4h-3.8v-43.4Z"/>
          <path class="cls-2" d="M1220.2,217.24h-17.6v8.9h-3.8v-8.9h-18.3v-3.2h39.7v3.2ZM1200.3,193.14c9.3,0,15.3,3.3,15.3,8.7s-6,8.65-15.3,8.7c-9.25-.05-15.3-3.35-15.3-8.7s6.05-8.7,15.3-8.7ZM1185.6,221.75h3.9v9.5h26.3v3.2h-30.2v-12.7ZM1200.3,207.34c6.8.05,11.25-2.1,11.3-5.5-.05-3.45-4.5-5.6-11.3-5.6s-11.25,2.15-11.2,5.6c-.05,3.4,4.5,5.55,11.2,5.5Z"/>
          <path class="cls-2" d="M1275.9,220.14h-18.1v15.3h-3.7v-15.3h-17.9v-3.3h39.7v3.3ZM1256,193.74c9.1.05,15.25,3.7,15.3,9.6-.05,5.75-6.2,9.4-15.3,9.4s-15.3-3.65-15.3-9.4,6.15-9.55,15.3-9.6ZM1256,209.64c6.75,0,11.35-2.45,11.3-6.3.05-3.95-4.55-6.45-11.3-6.5-6.8.05-11.4,2.55-11.3,6.5-.1,3.85,4.5,6.3,11.3,6.3Z"/>
          <path class="cls-2" d="M1281.9,196.04h20.2v15.4h-16.2v10.3c7.25,0,13.6-.3,21.4-1.6l.4,3.2c-8,1.3-14.6,1.6-22.1,1.6h-3.6v-16.6h16.2v-9.1h-16.3v-3.2ZM1315.3,235.45h-3.8v-43.4h3.8v43.4Z"/>
          <path class="cls-2" d="M1370.2,207.34h-13.4v5.7h18v3.2h-39.6v-3.2h17.9v-5.7h-12.5v-14.5h3.8v11.3h25.8v3.2ZM1354.9,219.54c9.35,0,14.95,2.85,15,7.9-.05,5-5.65,7.85-15,7.9-9.35-.05-14.95-2.9-15-7.9.05-5.05,5.65-7.9,15-7.9ZM1354.9,232.25c6.9.05,11.1-1.8,11.1-4.8s-4.2-4.85-11.1-4.9c-6.95.05-11.1,1.8-11.1,4.9s4.15,4.85,11.1,4.8Z"/>
          <path class="cls-2" d="M1412.7,198.64c0,4.05,0,8.6-1.25,14.8h6.45v3.2h-17.9v18.8h-3.9v-18.8h-17.7v-3.2h29.15c1.35-6.2,1.35-10.75,1.35-14.8v-.6h-25.6v-3.2h29.4v3.8Z"/>
          <path class="cls-2" d="M1434,195.04c6.45.05,11.3,4.4,11.3,10.7s-4.85,10.7-11.3,10.6c-6.55.1-11.45-4.3-11.4-10.6-.05-6.3,4.85-10.65,11.4-10.7ZM1434,213.04c4.25,0,7.6-3,7.6-7.3s-3.35-7.3-7.6-7.3-7.7,3.05-7.7,7.3,3.25,7.3,7.7,7.3ZM1429.4,220.54h3.8v10.7h25.6v3.2h-29.4v-13.9ZM1457.4,223.75h-3.8v-31.7h3.8v31.7Z"/>
          <path class="cls-2" d="M1504.4,213.34h-39.6v-3.1h39.6v3.1ZM1469.6,217.24h29.6v10.1h-25.8v4.4h27.1v3.2h-30.8v-10.5h25.8v-4.2h-25.9v-3ZM1470,193.54h29.2v3.1h-25.3v6.9h25.7v3.1h-29.6v-13.1Z"/>
          <path class="cls-2" d="M1512.7,225.45c1.7,0,3.1,1.4,3.1,3.1s-1.4,3.2-3.1,3.2-3.2-1.45-3.2-3.2,1.45-3.1,3.2-3.1ZM1514.7,221.44h-4.1l-.4-25.4h4.8l-.3,25.4Z"/>
        </g>
      </g>
    </g>
    <g id="_그룹_1574" data-name="그룹 1574">
      <g id="_실내_농구장에서_농구하고_싶은_농구인들_" data-name="실내 농구장에서 농구하고 싶은 농구인들 " class="cls-10">
        <g class="cls-10">
          <path class="cls-2" d="M1217,587.76v-3.4h6.4v3.4c0,5.45,3.25,10.6,10.5,12.7l-3,4.8c-5.15-1.5-8.65-4.6-10.65-8.6-2,4.35-5.65,7.8-10.95,9.4l-3.1-4.9c7.45-2.25,10.75-7.85,10.8-13.4ZM1213.8,607.86h29.8v12h-23.6v2.8h24.8v4.9h-30.9v-12.3h23.5v-2.6h-23.6v-4.8ZM1243.6,605.96h-6.2v-22.6h6.2v22.6Z"/>
          <path class="cls-2" d="M1251.4,588.36h6.3v23.2c3.55-.1,7.45-.4,11.7-1.2l.7,5.3c-5.95,1.05-11.05,1.35-15.7,1.4h-3v-28.7ZM1287.9,627.86h-5.9v-22.2h-4.2v20h-5.9v-41.5h5.9v16.4h4.2v-17.2h5.9v44.5Z"/>
          <path class="cls-2" d="M1340.3,599.56h-12.6v4.4h17.2v5h-40.6v-5h17.2v-4.4h-12v-15.5h6.2v10.5h24.6v5ZM1324.5,611.36c9.65,0,15.45,3,15.5,8.2-.05,5.3-5.85,8.3-15.5,8.3s-15.55-3-15.5-8.3c-.05-5.2,5.8-8.2,15.5-8.2ZM1324.5,623.16c6.05-.05,9.25-1.25,9.3-3.6-.05-2.35-3.25-3.45-9.3-3.4-6.15-.05-9.25,1.05-9.2,3.4-.05,2.35,3.05,3.55,9.2,3.6Z"/>
          <path class="cls-2" d="M1383.3,589.96c0,4.2,0,8.75-1.15,15h5.95v5h-17.4v17.9h-6.2v-17.9h-17v-5h28.4c1.1-5.75,1.2-10.15,1.2-14h-24.9v-4.9h31.1v3.9Z"/>
          <path class="cls-2" d="M1416,591.36h-8.9c.05,5.15,3.15,10.2,10.3,12.3l-3,4.9c-4.9-1.5-8.3-4.5-10.3-8.3-1.95,4.45-5.55,8-10.9,9.7l-3.1-4.9c7.3-2.3,10.65-8.05,10.7-13.7h-9v-5h24.2v5ZM1411.4,610.66c9.25-.05,15,3.15,15,8.6s-5.75,8.6-15,8.6-15.25-3.2-15.2-8.6c-.05-5.45,5.8-8.65,15.2-8.6ZM1411.4,622.96c5.75.05,8.85-1.2,8.8-3.7.05-2.55-3.05-3.75-8.8-3.8-5.8.05-9,1.25-9,3.8s3.2,3.75,9,3.7ZM1419.7,583.36h6.3v10.4h6v5h-6v11h-6.3v-26.4Z"/>
        </g>
        <g class="cls-10">
          <path class="cls-2" d="M1444.29,587.56c5.25.05,8.85,5.1,9.35,13.3h5.65v-16h3.6v40.3h-3.6v-21.1h-5.65c-.4,8.45-4,13.7-9.35,13.7-5.65,0-9.3-5.85-9.3-15.1s3.65-15.05,9.3-15.1ZM1444.29,614.06c3.55.1,5.8-4.35,5.8-11.4s-2.25-11.5-5.8-11.5-5.75,4.45-5.7,11.5c-.05,7.05,2.2,11.5,5.7,11.4ZM1471.69,627.36h-3.7v-43.4h3.7v43.4Z"/>
          <path class="cls-2" d="M1504.29,614.26l-2.3,3.1c-4.95-2.55-9.05-7.7-11-13.9-1.9,6.5-5.95,12.05-10.9,14.7l-2.5-3.1c6.4-3.15,11.4-11.5,11.5-19.5v-7.9h3.8v7.9c0,7.9,5.05,15.8,11.4,18.7ZM1499.59,598.76h10.2v-14.8h3.8v43.4h-3.8v-25.5h-10.2v-3.1Z"/>
        </g>
        <g class="cls-10">
          <path class="cls-2" d="M1086,664.26h-13.4v5.7h18v3.2h-39.6v-3.2h17.9v-5.7h-12.5v-14.5h3.8v11.3h25.8v3.2ZM1070.7,676.46c9.35,0,14.95,2.85,15,7.9-.05,5-5.65,7.85-15,7.9-9.35-.05-14.95-2.9-15-7.9.05-5.05,5.65-7.9,15-7.9ZM1070.7,689.16c6.9.05,11.1-1.8,11.1-4.8s-4.2-4.85-11.1-4.9c-6.95.05-11.1,1.8-11.1,4.9s4.15,4.85,11.1,4.8Z"/>
          <path class="cls-2" d="M1128.5,655.56c0,4.05,0,8.6-1.25,14.8h6.45v3.2h-17.9v18.8h-3.9v-18.8h-17.7v-3.2h29.15c1.35-6.2,1.35-10.75,1.35-14.8v-.6h-25.6v-3.2h29.4v3.8Z"/>
          <path class="cls-2" d="M1137.1,655.86h11.2v-6.4h3.8v6.4h10.8v3.2h-25.8v-3.2ZM1150.2,662.66c6.2,0,10.65,4.1,10.7,10-.05,5.85-4.5,9.95-10.7,9.9-6.15.05-10.65-4.05-10.6-9.9-.05-5.9,4.45-10,10.6-10ZM1150.2,679.36c4.05,0,7-2.75,7-6.7s-2.95-6.8-7-6.8-6.95,2.85-6.9,6.8c-.05,3.95,2.9,6.7,6.9,6.7ZM1171,666.86h7.2v3.2h-7.2v22.3h-3.8v-43.4h3.8v17.9Z"/>
          <path class="cls-2" d="M1180.6,682.96h15.5v-15.5h3.8v15.5h20.2v3.2h-39.5v-3.2ZM1215.4,657.66c-.05,5.3-.05,11.25-1.7,20l-3.8-.5c1.6-8.25,1.6-14.3,1.6-19.5v-1.2h-26.7v-3.1h30.6v4.3Z"/>
          <path class="cls-2" d="M1247.7,654.76v-4.2h3.9v4.2c0,6.1,4.7,11.45,11.1,13.6l-1.9,3c-5.1-1.75-9.1-5.35-11.1-10.05-1.9,5.05-6,9-11.2,10.85l-1.9-3c6.5-2.3,11.15-8.05,11.1-14.4ZM1242.8,688.56h6.5v-9.8h-6.1v-3.1h29.2v3.1h-6v9.8h6.4v3.2h-30v-3.2ZM1262.6,688.56v-9.8h-9.5v9.8h9.5ZM1272.1,673.06h-3.8v-24.1h3.8v24.1Z"/>
          <path class="cls-2" d="M1319,674.96h-39.5v-3.1h39.5v3.1ZM1299.2,650.46c9.35-.05,15.35,3.15,15.3,8.6.05,5.4-5.95,8.65-15.3,8.7-9.4-.05-15.35-3.3-15.4-8.7.05-5.45,6-8.65,15.4-8.6ZM1284.6,678.76h3.8v9.4h26.2v3.2h-30v-12.6ZM1299.2,664.56c7,0,11.45-2.05,11.4-5.5.05-3.4-4.4-5.5-11.4-5.5s-11.4,2.1-11.4,5.5,4.45,5.5,11.4,5.5Z"/>
          <path class="cls-2" d="M1370.2,664.26h-13.4v5.7h18v3.2h-39.6v-3.2h17.9v-5.7h-12.5v-14.5h3.8v11.3h25.8v3.2ZM1354.9,676.46c9.35,0,14.95,2.85,15,7.9-.05,5-5.65,7.85-15,7.9-9.35-.05-14.95-2.9-15-7.9.05-5.05,5.65-7.9,15-7.9ZM1354.9,689.16c6.9.05,11.1-1.8,11.1-4.8s-4.2-4.85-11.1-4.9c-6.95.05-11.1,1.8-11.1,4.9s4.15,4.85,11.1,4.8Z"/>
          <path class="cls-2" d="M1412.7,655.56c0,4.05,0,8.6-1.25,14.8h6.45v3.2h-17.9v18.8h-3.9v-18.8h-17.7v-3.2h29.15c1.35-6.2,1.35-10.75,1.35-14.8v-.6h-25.6v-3.2h29.4v3.8Z"/>
          <path class="cls-2" d="M1434,651.96c6.45.05,11.3,4.4,11.3,10.7s-4.85,10.7-11.3,10.6c-6.55.1-11.45-4.3-11.4-10.6-.05-6.3,4.85-10.65,11.4-10.7ZM1434,669.96c4.25,0,7.6-3,7.6-7.3s-3.35-7.3-7.6-7.3-7.7,3.05-7.7,7.3,3.25,7.3,7.7,7.3ZM1429.4,677.46h3.8v10.7h25.6v3.2h-29.4v-13.9ZM1457.4,680.66h-3.8v-31.7h3.8v31.7Z"/>
          <path class="cls-2" d="M1504.4,670.26h-39.6v-3.1h39.6v3.1ZM1469.6,674.16h29.6v10.1h-25.8v4.4h27.1v3.2h-30.8v-10.5h25.8v-4.2h-25.9v-3ZM1470,650.46h29.2v3.1h-25.3v6.9h25.7v3.1h-29.6v-13.1Z"/>
          <path class="cls-2" d="M1512.7,682.36c1.7,0,3.1,1.4,3.1,3.1s-1.4,3.2-3.1,3.2-3.2-1.45-3.2-3.2,1.45-3.1,3.2-3.1ZM1514.7,678.36h-4.1l-.4-25.4h4.8l-.3,25.4Z"/>
        </g>
      </g>
    </g>
    <g id="_그룹_519" data-name="그룹 519">
      <g class="cls-12">
        <g id="_그룹_445" data-name="그룹 445">
          <path id="_패스_1185" data-name="패스 1185" class="cls-6" d="M1508.05,2.38c10.14-.39,20.06,3.05,27.78,9.64,7.99,7.02,12.87,16.92,13.58,27.54.73,10.5-2.78,20.85-9.75,28.74-7.27,8.21-17.56,13.12-28.52,13.62-21.8.93-40.31-15.81-41.58-37.59-.67-10.6,2.97-21.03,10.11-28.9,7.36-7.94,17.57-12.64,28.39-13.04"/>
          <path id="_패스_1186" data-name="패스 1186" class="cls-1" d="M1540.17,33.36c2.22-.06,4.44.16,6.61.65.03.12.05.23.08.35.32,1.55,1.57,7.81.81,8.95-2.49-2.71-6.08-6.53-7.81-9.74l.31-.21Z"/>
          <path id="_패스_1187" data-name="패스 1187" class="cls-1" d="M1539.68,19.73c.47.02.54,0,.88.37,2.36,2.59,4.82,8.74,5.81,12.05-2.08-.4-4.2-.59-6.32-.56.98-5.08.31-6.84-.34-11.69l-.02-.16Z"/>
          <path id="_패스_1188" data-name="패스 1188" class="cls-3" d="M1534.01,22.39c1.84-.97,3.77-1.8,5.66-2.65l.02.16c.65,4.86,1.32,6.61.34,11.69-.37.1-.76.11-1.14.02-.87-.31-4.27-7.96-4.88-9.23"/>
          <path id="_패스_1189" data-name="패스 1189" class="cls-3" d="M1527.93,8.97c3.44,1.11,8.89,6.47,11.26,9.21l-1.74.76c-1.38.62-2.72,1.31-4.06,2.02-1.62-2.82-4.65-8.94-5.46-11.99"/>
          <path id="_패스_1190" data-name="패스 1190" class="cls-3" d="M1532.53,23.04c.55.36,3.95,7.88,4.54,9.01-2.04.38-4.04.96-5.96,1.76l-.33.1c-.77-.69-3.24-6.46-3.93-7.83,1.92-.98,3.8-1.98,5.67-3.05"/>
          <path id="_패스_1191" data-name="패스 1191" class="cls-3" d="M1526.67,10.53c1.07,1.35,4.45,9.15,5.43,11.17l-6.04,3.12c-1.68-2.61-3.51-5.13-5.47-7.54,2.84-1.36,5.02-3.79,6.09-6.75"/>
          <path id="_패스_1192" data-name="패스 1192" class="cls-1" d="M1472.96,37.24c-.19,7.44,3.08,15.48,8.01,21.02-1.2,1.34-2.51,2.58-3.78,3.85-4.51-6.77-6.2-15.41-5.66-23.44.45-.5.93-.98,1.43-1.43"/>
          <path id="_패스_1193" data-name="패스 1193" class="cls-3" d="M1531.35,36.06c2.14-.96,4.37-1.73,6.66-2.28.96,1.57,2.06,3.03,3.15,4.51-1.22,3.04-3.78,9.48-6.41,11.4-.67-4.64-1.81-9.21-3.39-13.62"/>
          <path id="_패스_1194" data-name="패스 1194" class="cls-3" d="M1504.32,4.59c7.17-.9,14.45.18,21.05,3.15-.85,3.37-2,5.89-5.09,7.71-.29.17-.6.33-.9.49-1.44-1.67-2.99-3.25-4.64-4.71-2.58-2.18-5.39-4.07-8.38-5.65-.7-.28-1.38-.61-2.04-.99"/>
          <path id="_패스_1195" data-name="패스 1195" class="cls-4" d="M1506.35,5.58c1.73-.91,4.94-.37,6.76.21,1.62.45,3.09,1.31,4.27,2.5-.67,1.15-1.57,2.15-2.65,2.94-2.58-2.18-5.39-4.07-8.38-5.65"/>
          <path id="_패스_1196" data-name="패스 1196" class="cls-1" d="M1478.25,63.59c1.35-1.26,2.6-2.63,3.88-3.96,3.95,5.51,12.45,10.06,19.06,11.11,1.34.2,2.69.31,4.04.32-1.61,2.73-3.48,5.31-5.58,7.69-8.72-2.33-16.31-7.71-21.4-15.16"/>
          <path id="_패스_1197" data-name="패스 1197" class="cls-1" d="M1541.15,38.29c2.15,2.51,4.48,4.98,6.45,7.63-1.54,11.53-6.88,20.24-16.08,27.29,3.29-7.45,3.94-15.48,3.22-23.52,2.64-1.92,5.2-8.36,6.41-11.4"/>
          <path id="_패스_1198" data-name="패스 1198" class="cls-3" d="M1471.83,35.39c.88-4.27,2.4-8.39,4.51-12.2,5.23-9.08,13.65-15,23.67-17.67,1.23.39,2.43.86,3.63,1.33-.1.06-.19.13-.29.19-1.51.91-4.26,1.05-6.04,1.74-7.26,2.83-12.12,9.43-15.39,16.23l.27-.1c4.17-1.49,8.68-2.36,12.96-3.56,5.51-1.55,13.94-4.64,17.89-8.78,1.56,1.37,3.01,2.83,4.43,4.34-4.48,1.87-9.33,2.79-14.04,3.9-10.28,2.44-24.64,6.16-31.6,14.58"/>
          <path id="_패스_1199" data-name="패스 1199" class="cls-4" d="M1503.64,6.85c3.42,1.38,6.6,3.31,9.39,5.72-3.94,4.14-12.37,7.22-17.89,8.78-4.27,1.2-8.78,2.08-12.96,3.56l-.27.1c3.27-6.8,8.12-13.4,15.39-16.23,1.78-.69,4.53-.83,6.04-1.74.1-.06.2-.12.29-.19"/>
          <path id="_패스_1200" data-name="패스 1200" class="cls-1" d="M1533.36,51.95c.48,5.85-.61,17.79-4.5,22.44-2.82,3.38-12.4,5.32-16.65,5.59-3.51.21-7.03-.04-10.48-.73,2.03-2.71,3.64-5.58,5.52-8.37.86.3,1.8.33,2.68.08,7.77-1.35,14.43-7.04,19.2-13.05,1.52-1.91,2.83-3.97,4.23-5.97"/>
          <path id="_패스_1201" data-name="패스 1201" class="cls-3" d="M1529.74,37.04c1.83,4.8,3.04,9.81,3.61,14.91-1.39,2-2.71,4.06-4.23,5.97-4.77,6-11.43,11.7-19.2,13.05-.88.25-1.82.22-2.68-.08,2.22-3.94,4.34-7.93,6.45-11.93,4.14-7.85,8.42-16.88,16.05-21.91"/>
          <path id="_패스_1202" data-name="패스 1202" class="cls-3" d="M1482.13,59.63c12.42-13.03,27.31-23.77,42.98-32.55,1.38,2.64,2.76,5.29,3.88,8.05-7.97,4.95-12.57,15.38-16.82,23.43-2.23,4.22-4.47,8.41-6.93,12.49-1.35,0-2.7-.11-4.04-.32-6.62-1.05-15.12-5.61-19.06-11.11"/>
          <path id="_패스_1203" data-name="패스 1203" class="cls-3" d="M1518.58,18.31c2.15,2.29,4.07,4.79,5.74,7.46-17.61,9.49-29.09,18.54-43.34,32.5-4.93-5.53-8.2-13.58-8.01-21.02,9.67-9.06,17.49-11.39,29.92-14.19,5.37-1.07,10.63-2.65,15.69-4.74"/>
        </g>
      </g>
    </g>
    <g id="_그룹_1575" data-name="그룹 1575">
      <g class="cls-11">
        <g id="_그룹_445-2" data-name="그룹 445-2">
          <path id="_패스_1185-2" data-name="패스 1185-2" class="cls-6" d="M1508.05,459.29c10.14-.39,20.06,3.05,27.78,9.64,7.99,7.02,12.87,16.92,13.58,27.54.73,10.5-2.78,20.85-9.75,28.74-7.27,8.21-17.56,13.12-28.52,13.62-21.8.93-40.31-15.81-41.58-37.59-.67-10.6,2.97-21.03,10.11-28.9,7.36-7.94,17.57-12.64,28.39-13.04"/>
          <path id="_패스_1186-2" data-name="패스 1186-2" class="cls-1" d="M1540.17,490.27c2.22-.06,4.44.16,6.61.65.03.12.05.23.08.35.32,1.55,1.57,7.81.81,8.95-2.49-2.71-6.08-6.53-7.81-9.74l.31-.21Z"/>
          <path id="_패스_1187-2" data-name="패스 1187-2" class="cls-1" d="M1539.68,476.65c.47.02.54,0,.88.37,2.36,2.59,4.82,8.74,5.81,12.05-2.08-.4-4.2-.59-6.32-.56.98-5.08.31-6.84-.34-11.69l-.02-.16Z"/>
          <path id="_패스_1188-2" data-name="패스 1188-2" class="cls-3" d="M1534.01,479.3c1.84-.97,3.77-1.8,5.66-2.65l.02.16c.65,4.86,1.32,6.61.34,11.69-.37.1-.76.11-1.14.02-.87-.31-4.27-7.96-4.88-9.23"/>
          <path id="_패스_1189-2" data-name="패스 1189-2" class="cls-3" d="M1527.93,465.89c3.44,1.11,8.89,6.47,11.26,9.21l-1.74.76c-1.38.62-2.72,1.31-4.06,2.02-1.62-2.82-4.65-8.94-5.46-11.99"/>
          <path id="_패스_1190-2" data-name="패스 1190-2" class="cls-3" d="M1532.53,479.95c.55.36,3.95,7.88,4.54,9.01-2.04.38-4.04.96-5.96,1.76l-.33.1c-.77-.69-3.24-6.46-3.93-7.83,1.92-.98,3.8-1.98,5.67-3.05"/>
          <path id="_패스_1191-2" data-name="패스 1191-2" class="cls-3" d="M1526.67,467.44c1.07,1.35,4.45,9.15,5.43,11.17l-6.04,3.12c-1.68-2.61-3.51-5.13-5.47-7.54,2.84-1.36,5.02-3.79,6.09-6.75"/>
          <path id="_패스_1192-2" data-name="패스 1192-2" class="cls-1" d="M1472.96,494.16c-.19,7.44,3.08,15.48,8.01,21.02-1.2,1.34-2.51,2.58-3.78,3.85-4.51-6.77-6.2-15.41-5.66-23.44.45-.5.93-.98,1.43-1.43"/>
          <path id="_패스_1193-2" data-name="패스 1193-2" class="cls-3" d="M1531.35,492.98c2.14-.96,4.37-1.73,6.66-2.28.96,1.57,2.06,3.03,3.15,4.51-1.22,3.04-3.78,9.48-6.41,11.4-.67-4.64-1.81-9.21-3.39-13.62"/>
          <path id="_패스_1194-2" data-name="패스 1194-2" class="cls-3" d="M1504.32,461.5c7.17-.9,14.45.18,21.05,3.15-.85,3.37-2,5.89-5.09,7.71-.29.17-.6.33-.9.49-1.44-1.67-2.99-3.25-4.64-4.71-2.58-2.18-5.39-4.07-8.38-5.65-.7-.28-1.38-.61-2.04-.99"/>
          <path id="_패스_1195-2" data-name="패스 1195-2" class="cls-4" d="M1506.35,462.49c1.73-.91,4.94-.37,6.76.21,1.62.45,3.09,1.31,4.27,2.5-.67,1.15-1.57,2.15-2.65,2.94-2.58-2.18-5.39-4.07-8.38-5.65"/>
          <path id="_패스_1196-2" data-name="패스 1196-2" class="cls-1" d="M1478.25,520.5c1.35-1.26,2.6-2.63,3.88-3.96,3.95,5.51,12.45,10.06,19.06,11.11,1.34.2,2.69.31,4.04.32-1.61,2.73-3.48,5.31-5.58,7.69-8.72-2.33-16.31-7.71-21.4-15.16"/>
          <path id="_패스_1197-2" data-name="패스 1197-2" class="cls-1" d="M1541.15,495.2c2.15,2.51,4.48,4.98,6.45,7.63-1.54,11.53-6.88,20.24-16.08,27.29,3.29-7.45,3.94-15.48,3.22-23.52,2.64-1.92,5.2-8.36,6.41-11.4"/>
          <path id="_패스_1198-2" data-name="패스 1198-2" class="cls-3" d="M1471.83,492.3c.88-4.27,2.4-8.39,4.51-12.2,5.23-9.08,13.65-15,23.67-17.67,1.23.39,2.43.86,3.63,1.33-.1.06-.19.13-.29.19-1.51.91-4.26,1.05-6.04,1.74-7.26,2.83-12.12,9.43-15.39,16.23l.27-.1c4.17-1.49,8.68-2.36,12.96-3.56,5.51-1.55,13.94-4.64,17.89-8.78,1.56,1.37,3.01,2.83,4.43,4.34-4.48,1.87-9.33,2.79-14.04,3.9-10.28,2.44-24.64,6.16-31.6,14.58"/>
          <path id="_패스_1199-2" data-name="패스 1199-2" class="cls-4" d="M1503.64,463.76c3.42,1.38,6.6,3.31,9.39,5.72-3.94,4.14-12.37,7.22-17.89,8.78-4.27,1.2-8.78,2.08-12.96,3.56l-.27.1c3.27-6.8,8.12-13.4,15.39-16.23,1.78-.69,4.53-.83,6.04-1.74.1-.06.2-.12.29-.19"/>
          <path id="_패스_1200-2" data-name="패스 1200-2" class="cls-1" d="M1533.36,508.86c.48,5.85-.61,17.79-4.5,22.44-2.82,3.38-12.4,5.32-16.65,5.59-3.51.21-7.03-.04-10.48-.73,2.03-2.71,3.64-5.58,5.52-8.37.86.3,1.8.33,2.68.08,7.77-1.35,14.43-7.04,19.2-13.05,1.52-1.91,2.83-3.97,4.23-5.97"/>
          <path id="_패스_1201-2" data-name="패스 1201-2" class="cls-3" d="M1529.74,493.95c1.83,4.8,3.04,9.81,3.61,14.91-1.39,2-2.71,4.06-4.23,5.97-4.77,6-11.43,11.7-19.2,13.05-.88.25-1.82.22-2.68-.08,2.22-3.94,4.34-7.93,6.45-11.93,4.14-7.85,8.42-16.88,16.05-21.91"/>
          <path id="_패스_1202-2" data-name="패스 1202-2" class="cls-3" d="M1482.13,516.54c12.42-13.03,27.31-23.77,42.98-32.55,1.38,2.64,2.76,5.29,3.88,8.05-7.97,4.95-12.57,15.38-16.82,23.43-2.23,4.22-4.47,8.41-6.93,12.49-1.35,0-2.7-.11-4.04-.32-6.62-1.05-15.12-5.61-19.06-11.11"/>
          <path id="_패스_1203-2" data-name="패스 1203-2" class="cls-3" d="M1518.58,475.22c2.15,2.29,4.07,4.79,5.74,7.46-17.61,9.49-29.09,18.54-43.34,32.5-4.93-5.53-8.2-13.58-8.01-21.02,9.67-9.06,17.49-11.39,29.92-14.19,5.37-1.07,10.63-2.65,15.69-4.74"/>
        </g>
      </g>
    </g>
    <g id="_빼기_1" data-name="빼기 1">
      <path class="cls-8" d="M516,341.05H1v-159h599v85h-84v74Z"/>
      <path class="cls-7" d="M515.5,340.55v-74h84v-84H1.5v158h514M516.5,341.56h0s-516,0-516,0v-160h600v86h-84v74Z"/>
    </g>
    <g id="_빼기_4" data-name="빼기 4">
      <path class="cls-8" d="M369,757.16H1v-159h503v92h-135v67Z"/>
      <path class="cls-7" d="M368.5,756.66v-67h135v-91H1.5v158h367M369.5,757.66h0s-369,0-369,0v-160h504v93h-135v67Z"/>
    </g>
    <g id="_그룹_517" data-name="그룹 517">
      <g id="_번번히_오늘은_인원이_있을까_고민하고_있는_농구인들_" data-name="번번히 오늘은 인원이 있을까 고민하고 있는 농구인들 " class="cls-10">
        <g class="cls-10">
          <path class="cls-2" d="M59.2,237.25h-3.8v-16.7h-10.2v9.3h-19.8v-21.8h3.9v7.7h12.1v-7.7h3.8v9.3h10.2v-12.2h3.8v32.1ZM41.4,226.65v-7.9h-12.1v7.9h12.1ZM31.2,234.15h3.8v10.2h25.2v3.2h-29v-13.4Z"/>
          <path class="cls-2" d="M102.4,237.25h-3.8v-16.7h-10.2v9.3h-19.8v-21.8h3.9v7.7h12.1v-7.7h3.8v9.3h10.2v-12.2h3.8v32.1ZM84.6,226.65v-7.9h-12.1v7.9h12.1ZM74.4,234.15h3.8v10.2h25.2v3.2h-29v-13.4Z"/>
          <path class="cls-2" d="M110.6,212.15h11.2v-6.6h3.9v6.6h11.2v3.2h-26.3v-3.2ZM123.9,218.85c6.2,0,10.75,4.1,10.7,10,.05,5.85-4.5,9.95-10.7,9.9-6.35.05-10.85-4.05-10.8-9.9-.05-5.9,4.45-10,10.8-10ZM123.9,235.55c4.05,0,7.05-2.75,7.1-6.7-.05-3.95-3.05-6.8-7.1-6.8s-7.2,2.85-7.2,6.8,3,6.7,7.2,6.7ZM145.4,248.55h-3.8v-43.4h3.8v43.4Z"/>
        </g>
        <g class="cls-10">
          <path class="cls-2" d="M200.94,219.05c0,6.75-5.7,11.25-13.7,12.15v7.55h17.4v5.1h-40.7v-5.1h17.2v-7.55c-7.95-.95-13.6-5.45-13.6-12.15,0-7.3,7.15-12.15,16.7-12.2,9.55.05,16.7,4.9,16.7,12.2ZM184.24,226.35c6.2,0,10.55-2.6,10.6-7.3-.05-4.45-4.4-7.2-10.6-7.2s-10.55,2.75-10.6,7.2c.05,4.7,4.35,7.3,10.6,7.3Z"/>
          <path class="cls-2" d="M207.14,221.55h40.6v4.9h-40.6v-4.9ZM211.74,229.15h31.1v11.8h-24.7v2.8h26.1v4.8h-32.4v-12.1h24.9v-2.5h-25v-4.8ZM243.14,218.55h-30.9v-13.4h6.1v8.5h24.8v4.9Z"/>
          <path class="cls-2" d="M290.94,232.25h-40.6v-4.9h40.6v4.9ZM270.64,205.95c9.7,0,16.1,3.45,16.1,9.1s-6.4,9.2-16.1,9.2-16.25-3.5-16.2-9.2c-.05-5.65,6.4-9.1,16.2-9.1ZM255.24,235.25h6.3v8h24.7v5h-31v-13ZM270.64,219.15c6.1.05,9.7-1.35,9.7-4.1s-3.6-4.15-9.7-4.2c-6.2.05-9.8,1.5-9.7,4.2-.1,2.75,3.5,4.15,9.7,4.1Z"/>
          <path class="cls-2" d="M317.94,207.45c6.8,0,12.1,4.7,12.1,11.2s-5.3,11.3-12.1,11.3-12.2-4.65-12.2-11.3,5.35-11.2,12.2-11.2ZM317.94,224.55c3.35-.05,5.95-2.15,5.9-5.9.05-3.6-2.55-5.75-5.9-5.8-3.5.05-6.15,2.2-6.1,5.8-.05,3.75,2.6,5.85,6.1,5.9ZM312.44,233.35h6.3v9.9h24.7v5h-31v-14.9ZM342.24,236.55h-6.2v-31.9h6.2v31.9Z"/>
          <path class="cls-2" d="M376.64,222.95l.3,4.5c-3.5.6-7.1,1-10.7,1.25v8.45h-6.3v6.1h27v5h-33.2v-13.3h6.2v-5.85c-3.95.15-7.75.15-11.1.15l-.8-4.9c8.2-.1,19.2-.15,28.6-1.4ZM362.54,206.15c6.5,0,11.1,3.25,11.1,8s-4.6,7.8-11.1,7.8-11.15-3.05-11.2-7.8c.05-4.75,4.6-8,11.2-8ZM362.54,217.45c3,0,5.15-1.15,5.2-3.3-.05-2.25-2.2-3.45-5.2-3.4-3.15-.05-5.3,1.15-5.3,3.4s2.15,3.3,5.3,3.3ZM385.94,238.25h-6.3v-3.6h-8.5v-4.2h8.5v-25.8h6.3v33.6Z"/>
          <path class="cls-2" d="M404.54,207.75c6.7,0,11.65,6.1,11.7,15.8-.05,9.75-5,15.9-11.7,15.9s-11.8-6.15-11.8-15.9,5-15.8,11.8-15.8ZM404.54,233.75c3.35,0,5.65-3.55,5.7-10.2-.05-6.6-2.35-10.2-5.7-10.2s-5.8,3.6-5.8,10.2,2.35,10.2,5.8,10.2ZM428.64,249.15h-6.3v-44.6h6.3v44.6Z"/>
          <path class="cls-2" d="M459.04,206.85c6.9.05,12.1,4.45,12.1,10.7s-5.2,10.65-12.1,10.6c-7,.05-12.2-4.35-12.2-10.6s5.2-10.65,12.2-10.7ZM467.44,242.8c3.65-2.55,5.3-6.35,5.3-9.65v-1.6h6.1v1.6c0,4.6,2.45,8.9,8.4,10.7l-3.1,4.5c-4.2-1.4-7-4.1-8.5-7.5-1.5,3.4-4.05,6.35-8,7.9-4.2-1.5-6.8-4.35-8.25-7.8-1.6,3.35-4.35,6-8.45,7.4l-3-4.5c5.8-2,8.3-6.4,8.3-10.7v-1.6h6.1v1.6c0,3.55,1.5,7.25,5.1,9.65ZM459.04,223.05c3.45,0,5.95-2.1,5.9-5.5.05-3.4-2.45-5.45-5.9-5.4-3.6-.05-6.15,2-6.1,5.4-.05,3.4,2.5,5.5,6.1,5.5ZM477.14,204.65h6.2v25.1h-6.2v-25.1Z"/>
          <path class="cls-2" d="M489.34,222.55h40.6v4.9h-40.6v-4.9ZM525.74,212.85c0,4.9-5.9,7.6-16.1,7.6s-16.25-2.7-16.2-7.6c-.05-4.95,5.9-7.6,16.2-7.6s16.1,2.65,16.1,7.6ZM494.04,237.05h24.8v-2.4h-24.8v-4.6h30.9v11.3h-24.8v2.7h26v4.7h-32.1v-11.7ZM509.64,215.85c6.55,0,9.7-.85,9.7-3,0-2-3.15-3.05-9.7-3.1-6.55.05-9.7,1.1-9.7,3.1,0,2.15,3.15,3,9.7,3Z"/>
          <path class="cls-2" d="M539.84,214.25h-6.2v-5.1h12.2c-.05,12.2-1.3,21.75-9.3,30.5l-4.9-3.5c6.1-6.6,7.85-13.1,8.2-21.9ZM552.24,214.25h-4.9v-5.1h10.8c0,12.7-1.1,23.7-9,33.3l-4.9-3.4c6-7.45,7.65-15.05,8-24.8ZM568.14,222.05h5.9v5.1h-5.9v21.9h-6.2v-44.5h6.2v17.5Z"/>
        </g>
        <g class="cls-10">
          <path class="cls-2" d="M23.3,304.15h15.5v-15.5h3.8v15.5h20.2v3.2H23.3v-3.2ZM58.1,278.85c-.05,5.3-.05,11.25-1.7,20l-3.8-.5c1.6-8.25,1.6-14.3,1.6-19.5v-1.2h-26.7v-3.1h30.6v4.3Z"/>
          <path class="cls-2" d="M89.1,294.05h-20.4v-20.1h20.4v20.1ZM85.3,290.95v-13.9h-12.8v13.9h12.8ZM74.3,298.35h3.8v10.5h25.6v3.2h-29.4v-13.7ZM98.5,270.15h3.8v31.2h-3.8v-31.2Z"/>
          <path class="cls-2" d="M109.4,277.05h11.2v-6.4h3.8v6.4h10.8v3.2h-25.8v-3.2ZM122.5,283.85c6.2,0,10.65,4.1,10.7,10-.05,5.85-4.5,9.95-10.7,9.9-6.15.05-10.65-4.05-10.6-9.9-.05-5.9,4.45-10,10.6-10ZM122.5,300.55c4.05,0,7-2.75,7-6.7s-2.95-6.8-7-6.8-6.95,2.85-6.9,6.8c-.05,3.95,2.9,6.7,6.9,6.7ZM143.3,288.05h7.2v3.2h-7.2v22.3h-3.8v-43.4h3.8v17.9Z"/>
          <path class="cls-2" d="M152.9,304.15h15.5v-15.5h3.8v15.5h20.2v3.2h-39.5v-3.2ZM187.7,278.85c-.05,5.3-.05,11.25-1.7,20l-3.8-.5c1.6-8.25,1.6-14.3,1.6-19.5v-1.2h-26.7v-3.1h30.6v4.3Z"/>
          <path class="cls-2" d="M221,272.65c6.55,0,11.3,4.15,11.3,10.2s-4.75,10.05-11.3,10.1c-6.65-.05-11.45-4.15-11.4-10.1-.05-6.05,4.75-10.2,11.4-10.2ZM229.4,309.55c4.2-2.55,6.35-6.95,6.4-10.3v-2.4h3.7v2.4c0,4.45,3.3,8.9,8.9,10.8l-2,2.8c-4.3-1.5-7.35-4.5-8.85-8.15-1.35,3.5-3.95,6.85-7.95,8.55-4.25-1.6-6.95-4.8-8.25-8.4-1.55,3.5-4.6,6.5-8.75,8l-1.9-2.8c5.5-2,8.8-6.65,8.8-10.8v-2.4h3.7v2.4c.05,3.85,2.15,7.95,6.2,10.3ZM221,289.75c4.4-.05,7.6-2.9,7.6-6.9s-3.2-6.95-7.6-6.9c-4.5-.05-7.7,2.85-7.7,6.9s3.2,6.85,7.7,6.9ZM240.6,270.15h3.8v24.8h-3.8v-24.8Z"/>
          <path class="cls-2" d="M251.7,292.25h39.7v3.1h-39.7v-3.1ZM256.9,299.85h3.8v9.4h26.4v3.2h-30.2v-12.6ZM286.8,286.35h-29.7v-14.6h3.8v11.5h25.9v3.1Z"/>
          <path class="cls-2" d="M342.5,285.45h-13.4v5.7h18v3.2h-39.6v-3.2h17.9v-5.7h-12.5v-14.5h3.8v11.3h25.8v3.2ZM327.2,297.65c9.35,0,14.95,2.85,15,7.9-.05,5-5.65,7.85-15,7.9-9.35-.05-14.95-2.9-15-7.9.05-5.05,5.65-7.9,15-7.9ZM327.2,310.35c6.9.05,11.1-1.8,11.1-4.8s-4.2-4.85-11.1-4.9c-6.95.05-11.1,1.8-11.1,4.9s4.15,4.85,11.1,4.8Z"/>
          <path class="cls-2" d="M385,276.75c0,4.05,0,8.6-1.25,14.8h6.45v3.2h-17.9v18.8h-3.9v-18.8h-17.7v-3.2h29.15c1.35-6.2,1.35-10.75,1.35-14.8v-.6h-25.6v-3.2h29.4v3.8Z"/>
          <path class="cls-2" d="M406.3,273.15c6.45.05,11.3,4.4,11.3,10.7s-4.85,10.7-11.3,10.6c-6.55.1-11.45-4.3-11.4-10.6-.05-6.3,4.85-10.65,11.4-10.7ZM406.3,291.15c4.25,0,7.6-3,7.6-7.3s-3.35-7.3-7.6-7.3-7.7,3.05-7.7,7.3,3.25,7.3,7.7,7.3ZM401.7,298.65h3.8v10.7h25.6v3.2h-29.4v-13.9ZM429.7,301.85h-3.8v-31.7h3.8v31.7Z"/>
          <path class="cls-2" d="M476.7,291.45h-39.6v-3.1h39.6v3.1ZM441.9,295.35h29.6v10.1h-25.8v4.4h27.1v3.2h-30.8v-10.5h25.8v-4.2h-25.9v-3ZM442.3,271.65h29.2v3.1h-25.3v6.9h25.7v3.1h-29.6v-13.1Z"/>
          <path class="cls-2" d="M485,303.55c1.7,0,3.1,1.4,3.1,3.1s-1.4,3.2-3.1,3.2-3.2-1.45-3.2-3.2,1.45-3.1,3.2-3.1ZM487,299.55h-4.1l-.4-25.4h4.8l-.3,25.4Z"/>
        </g>
      </g>
    </g>
    <g id="_그룹_512" data-name="그룹 512">
      <g id="_눈이나_비가와서_농구를_못해_아쉬운_상황" data-name="눈이나 비가와서 농구를 못해 아쉬운 상황" class="cls-10">
        <g class="cls-10">
          <path class="cls-2" d="M23.47,644.15h40.6v4.9h-16.7v7.8h-6.2v-7.8h-17.7v-4.9ZM28.27,653.45h6.2v8.4h25.4v5h-31.6v-13.4ZM59.57,640.15h-30.9v-15.8h6.3v10.9h24.6v4.9Z"/>
          <path class="cls-2" d="M79.77,626.35c6.7,0,11.65,6.1,11.7,15.8-.05,9.75-5,15.9-11.7,15.9s-11.8-6.15-11.8-15.9,5-15.8,11.8-15.8ZM79.77,652.35c3.35,0,5.65-3.55,5.7-10.2-.05-6.6-2.35-10.2-5.7-10.2s-5.8,3.6-5.8,10.2,2.35,10.2,5.8,10.2ZM103.87,667.75h-6.3v-44.6h6.3v44.6Z"/>
          <path class="cls-2" d="M111.27,627.45h6.2v24.1c5.7-.1,11.75-.6,18.2-1.9l.7,5.2c-7.45,1.45-14.65,1.85-21.2,1.8h-3.9v-29.2ZM151.27,645.15h-6.3v22.4h-6.3v-44.4h6.3v16.9h6.3v5.1Z"/>
          <path class="cls-2" d="M166.77,626.75h6.3v10.8h9.5v-10.8h6.2v30.6h-22v-30.6ZM182.57,652.25v-9.9h-9.5v9.9h9.5ZM201.77,667.75h-6.3v-44.6h6.3v44.6Z"/>
          <path class="cls-2" d="M224.62,632.85h-14.75v-5.1h21.1c-.05,13.3-5.2,24.8-20.1,32.1l-3.6-4.7c10.55-5.3,16.15-12.4,17.35-22.3ZM242.87,640.25h6.3v5.1h-6.3v22.2h-6.3v-44.4h6.3v17.1Z"/>
          <path class="cls-2" d="M276.37,636.75c0,5.4-3.75,9.4-9,10.55v6.05c3.5-.15,7-.45,10.3-.9l.4,4.6c-9.25,1.75-19.25,1.75-26.8,1.7l-.8-5.1c3.2,0,6.85,0,10.7-.05v-6.25c-5.4-1.15-9.15-5.2-9.1-10.6-.05-6.4,5.15-10.9,12.2-10.9s12.1,4.5,12.1,10.9ZM264.27,642.35c3.4,0,6-2.1,6-5.6s-2.6-5.6-6-5.6-6.2,2.05-6.2,5.6,2.65,5.6,6.2,5.6ZM280.07,623.15h6.2v17.5h6.1v5.2h-6.1v21.8h-6.2v-44.5Z"/>
          <path class="cls-2" d="M321.77,652.95l-3.8,5c-4.95-2.4-8.25-6.85-10.1-12.35-1.9,5.85-5.35,10.65-10.4,13.15l-3.9-5.1c7.6-3.45,11.05-12.05,11.1-20.4v-6.6h6.3v6.6c.05,8.35,3.4,16.5,10.8,19.7ZM316.77,637.15h8.8v-14h6.1v44.6h-6.1v-25.6h-8.8v-5Z"/>
        </g>
        <g class="cls-10">
          <path class="cls-2" d="M385.48,639.05h-13.4v5.7h18v3.2h-39.6v-3.2h17.9v-5.7h-12.5v-14.5h3.8v11.3h25.8v3.2ZM370.18,651.25c9.35,0,14.95,2.85,15,7.9-.05,5-5.65,7.85-15,7.9-9.35-.05-14.95-2.9-15-7.9.05-5.05,5.65-7.9,15-7.9ZM370.18,663.95c6.9.05,11.1-1.8,11.1-4.8s-4.2-4.85-11.1-4.9c-6.95.05-11.1,1.8-11.1,4.9s4.15,4.85,11.1,4.8Z"/>
          <path class="cls-2" d="M427.98,630.35c0,4.05,0,8.6-1.25,14.8h6.45v3.2h-17.9v18.8h-3.9v-18.8h-17.7v-3.2h29.15c1.35-6.2,1.35-10.75,1.35-14.8v-.6h-25.6v-3.2h29.4v3.8Z"/>
          <path class="cls-2" d="M476.48,646.85h-39.7v-3h39.7v3ZM441.58,650.35h30v9.2h-26.1v4.2h27.5v2.8h-31.3v-9.6h26.1v-3.7h-26.2v-2.9ZM441.78,625.05h29.6v9h-25.6v3.8h26.4v2.8h-30.2v-9.3h25.6v-3.6h-25.8v-2.7Z"/>
        </g>
        <g class="cls-10">
          <path class="cls-2" d="M58.47,705.05h-12.9v5.2h17.9v3.1H23.97v-3.1h17.9v-5.2h-12.8v-14.5h29.4v14.5ZM41.77,717.55v-1.5h3.8v1.5c.05,5.85,6.95,10.1,14.9,11.3l-1.6,3c-6.55-1.1-12.6-4.2-15.15-8.95-2.65,4.75-8.65,7.85-15.25,8.95l-1.5-3c7.85-1.2,14.8-5.45,14.8-11.3ZM54.67,701.95v-8.3h-21.9v8.3h21.9Z"/>
          <path class="cls-2" d="M88.77,699.35h-21.7v-3.1h9v-6.2h3.8v6.2h8.9v3.1ZM77.97,702.25c5.4.05,9.35,4.1,9.4,9.9-.05,5.8-4,9.9-9.4,9.9s-9.4-4.1-9.4-9.9,3.95-9.85,9.4-9.9ZM77.97,718.75c3.4,0,5.95-2.75,5.9-6.6.05-3.8-2.5-6.6-5.9-6.7-3.5.1-5.95,2.9-6,6.7.05,3.85,2.5,6.6,6,6.6ZM91.07,689.75h3.6v17.3h5.8v-18.3h3.6v43.4h-3.6v-22h-5.8v19.8h-3.6v-40.2Z"/>
          <path class="cls-2" d="M145.37,707.15c0,9.3-4.5,15.15-10.9,15.2-6.45-.05-11-5.9-10.9-15.2-.1-9.2,4.45-15.05,10.9-15.1,6.4.05,10.9,5.9,10.9,15.1ZM134.47,718.85c4.3.05,7.25-4.6,7.2-11.7.05-7-2.9-11.65-7.2-11.7-4.3.05-7.3,4.7-7.3,11.7s3,11.75,7.3,11.7ZM152.57,688.75h3.9v17.3h7.2v3.3h-7.2v22.8h-3.9v-43.4Z"/>
          <path class="cls-2" d="M194.87,710.55l.3,2.8c-4.15.75-8.5,1.2-12.7,1.5v15.9h-3.8v-15.7c-4.4.2-8.55.2-12.2.2l-.5-3.3c8.2.05,19.25-.05,28.9-1.4ZM193.17,704.05l-1.8,3c-5.15-1.35-9.1-4.2-11-8.1-1.95,4.35-6.1,7.65-11.3,9.2l-1.9-3.1c6.6-1.75,11.15-6.35,11.2-11.8v-2.6h3.9v2.6c-.05,5.05,4.4,9.2,10.9,10.8ZM198.07,688.75h3.8v43.4h-3.8v-43.4Z"/>
          <path class="cls-2" d="M248.87,713.95h-17.6v8.9h-3.8v-8.9h-18.3v-3.2h39.7v3.2ZM228.97,689.85c9.3,0,15.3,3.3,15.3,8.7s-6,8.65-15.3,8.7c-9.25-.05-15.3-3.35-15.3-8.7s6.05-8.7,15.3-8.7ZM214.27,718.45h3.9v9.5h26.3v3.2h-30.2v-12.7ZM228.97,704.05c6.8.05,11.25-2.1,11.3-5.5-.05-3.45-4.5-5.6-11.3-5.6s-11.25,2.15-11.2,5.6c-.05,3.4,4.5,5.55,11.2,5.5Z"/>
          <path class="cls-2" d="M290.17,709.15l-2,3.1c-4.8-1.75-8.65-5.35-10.5-9.9-1.85,5.15-5.75,9.15-10.8,11.1l-2.1-3.1c6.5-2.4,10.85-8.2,10.9-14.9v-4.5h3.8v4.8c-.05,5.9,4.45,11.3,10.7,13.4ZM284.97,716.25c8.9,0,14.3,2.9,14.3,7.9s-5.4,7.85-14.3,7.9c-8.95-.05-14.4-2.9-14.4-7.9s5.45-7.9,14.4-7.9ZM284.97,728.95c6.55,0,10.55-1.75,10.6-4.8-.05-3-4.05-4.85-10.6-4.8-6.55-.05-10.6,1.8-10.6,4.8s4.05,4.8,10.6,4.8ZM295.07,688.75h3.8v11.3h6.5v3.2h-6.5v11.9h-3.8v-26.4Z"/>
          <path class="cls-2" d="M319.67,713v-3.55c-5.1-.4-8.3-2.65-8.3-6.1,0-3.85,4-6.1,10.2-6.1s10.15,2.25,10.2,6.1c-.05,3.4-3.2,5.65-8.2,6.1v3.4c4.05-.2,8.1-.55,11.9-1.1l.3,2.7c-9.3,1.6-19.7,1.75-27.4,1.8l-.4-3.2c3.45.05,7.5.05,11.7-.05ZM309.07,692.45h10.6v-4.1h3.9v4.1h10.6v3h-25.1v-3ZM328.07,718.75c8.95-.05,14.2,2.3,14.2,6.7s-5.25,6.6-14.2,6.6-14.35-2.3-14.3-6.6c-.05-4.4,5.15-6.75,14.3-6.7ZM321.57,706.95c4-.05,6.5-1.4,6.5-3.6,0-2.05-2.5-3.45-6.5-3.4-4-.05-6.55,1.35-6.5,3.4-.05,2.2,2.5,3.55,6.5,3.6ZM328.07,729.15c6.6.05,10.3-1.4,10.3-3.7,0-2.5-3.7-3.9-10.3-3.9s-10.5,1.4-10.5,3.9c0,2.3,3.75,3.75,10.5,3.7ZM341.97,701.85h6.5v3.2h-6.5v13.1h-3.8v-29.4h3.8v13.1Z"/>
        </g>
      </g>
    </g>
    <g id="_그룹_510" data-name="그룹 510">
      <g class="cls-9">
        <g id="_그룹_445-3" data-name="그룹 445-3">
          <path id="_패스_1185-3" data-name="패스 1185-3" class="cls-6" d="M39.05,80.99c10.14-.39,20.06,3.05,27.78,9.64,7.99,7.02,12.87,16.92,13.58,27.54.73,10.5-2.78,20.85-9.75,28.74-7.27,8.21-17.56,13.12-28.52,13.62-21.8.93-40.31-15.81-41.58-37.59-.67-10.6,2.97-21.03,10.11-28.9,7.36-7.94,17.57-12.64,28.39-13.04"/>
          <path id="_패스_1186-3" data-name="패스 1186-3" class="cls-1" d="M71.17,111.97c2.22-.06,4.44.16,6.61.65.03.12.05.23.08.35.32,1.55,1.57,7.81.81,8.95-2.49-2.71-6.08-6.53-7.81-9.74l.31-.21Z"/>
          <path id="_패스_1187-3" data-name="패스 1187-3" class="cls-1" d="M70.68,98.34c.47.02.54,0,.88.37,2.36,2.59,4.82,8.74,5.81,12.05-2.08-.4-4.2-.59-6.32-.56.98-5.08.31-6.84-.34-11.69l-.02-.16Z"/>
          <path id="_패스_1188-3" data-name="패스 1188-3" class="cls-3" d="M65.01,101c1.84-.97,3.77-1.8,5.66-2.65l.02.16c.65,4.86,1.32,6.61.34,11.69-.37.1-.76.11-1.14.02-.87-.31-4.27-7.96-4.88-9.23"/>
          <path id="_패스_1189-3" data-name="패스 1189-3" class="cls-3" d="M58.93,87.58c3.44,1.11,8.89,6.47,11.26,9.21l-1.74.76c-1.38.62-2.72,1.31-4.06,2.02-1.62-2.82-4.65-8.94-5.46-11.99"/>
          <path id="_패스_1190-3" data-name="패스 1190-3" class="cls-3" d="M63.53,101.64c.55.36,3.95,7.88,4.54,9.01-2.04.38-4.04.96-5.96,1.76l-.33.1c-.77-.69-3.24-6.46-3.93-7.83,1.92-.98,3.8-1.98,5.67-3.05"/>
          <path id="_패스_1191-3" data-name="패스 1191-3" class="cls-3" d="M57.67,89.13c1.07,1.35,4.45,9.15,5.43,11.17l-6.04,3.12c-1.68-2.61-3.51-5.13-5.47-7.54,2.84-1.36,5.02-3.79,6.09-6.75"/>
          <path id="_패스_1192-3" data-name="패스 1192-3" class="cls-1" d="M3.96,115.85c-.19,7.44,3.08,15.48,8.01,21.02-1.2,1.34-2.51,2.58-3.78,3.85-4.51-6.77-6.2-15.41-5.66-23.44.45-.5.93-.98,1.43-1.43"/>
          <path id="_패스_1193-3" data-name="패스 1193-3" class="cls-3" d="M62.35,114.67c2.14-.96,4.37-1.73,6.66-2.28.96,1.57,2.06,3.03,3.15,4.51-1.22,3.04-3.78,9.48-6.41,11.4-.67-4.64-1.81-9.21-3.39-13.62"/>
          <path id="_패스_1194-3" data-name="패스 1194-3" class="cls-3" d="M35.32,83.19c7.17-.9,14.45.18,21.05,3.15-.85,3.37-2,5.89-5.09,7.71-.29.17-.6.33-.9.49-1.44-1.67-2.99-3.25-4.64-4.71-2.58-2.18-5.39-4.07-8.38-5.65-.7-.28-1.38-.61-2.04-.99"/>
          <path id="_패스_1195-3" data-name="패스 1195-3" class="cls-4" d="M37.35,84.18c1.73-.91,4.94-.37,6.76.21,1.62.45,3.09,1.31,4.27,2.5-.67,1.15-1.57,2.15-2.65,2.94-2.58-2.18-5.39-4.07-8.38-5.65"/>
          <path id="_패스_1196-3" data-name="패스 1196-3" class="cls-1" d="M9.25,142.2c1.35-1.26,2.6-2.63,3.88-3.96,3.95,5.51,12.45,10.06,19.06,11.11,1.34.2,2.69.31,4.04.32-1.61,2.73-3.48,5.31-5.58,7.69-8.72-2.33-16.31-7.71-21.4-15.16"/>
          <path id="_패스_1197-3" data-name="패스 1197-3" class="cls-1" d="M72.15,116.9c2.15,2.51,4.48,4.98,6.45,7.63-1.54,11.53-6.88,20.24-16.08,27.29,3.29-7.45,3.94-15.48,3.22-23.52,2.64-1.92,5.2-8.36,6.41-11.4"/>
          <path id="_패스_1198-3" data-name="패스 1198-3" class="cls-3" d="M2.83,114c.88-4.27,2.4-8.39,4.51-12.2,5.23-9.08,13.65-15,23.67-17.67,1.23.39,2.43.86,3.63,1.33-.1.06-.19.13-.29.19-1.51.91-4.26,1.05-6.04,1.74-7.26,2.83-12.12,9.43-15.39,16.23l.27-.1c4.17-1.49,8.68-2.36,12.96-3.56,5.51-1.55,13.94-4.64,17.89-8.78,1.56,1.37,3.01,2.83,4.43,4.34-4.48,1.87-9.33,2.79-14.04,3.9-10.28,2.44-24.64,6.16-31.6,14.58"/>
          <path id="_패스_1199-3" data-name="패스 1199-3" class="cls-4" d="M34.64,85.45c3.42,1.38,6.6,3.31,9.39,5.72-3.94,4.14-12.37,7.22-17.89,8.78-4.27,1.2-8.78,2.08-12.96,3.56l-.27.1c3.27-6.8,8.12-13.4,15.39-16.23,1.78-.69,4.53-.83,6.04-1.74.1-.06.2-.12.29-.19"/>
          <path id="_패스_1200-3" data-name="패스 1200-3" class="cls-1" d="M64.36,130.56c.48,5.85-.61,17.79-4.5,22.44-2.82,3.38-12.4,5.32-16.65,5.59-3.51.21-7.03-.04-10.48-.73,2.03-2.71,3.64-5.58,5.52-8.37.86.3,1.8.33,2.68.08,7.77-1.35,14.43-7.04,19.2-13.05,1.52-1.91,2.83-3.97,4.23-5.97"/>
          <path id="_패스_1201-3" data-name="패스 1201-3" class="cls-3" d="M60.74,115.65c1.83,4.8,3.04,9.81,3.61,14.91-1.39,2-2.71,4.06-4.23,5.97-4.77,6-11.43,11.7-19.2,13.05-.88.25-1.82.22-2.68-.08,2.22-3.94,4.34-7.93,6.45-11.93,4.14-7.85,8.42-16.88,16.05-21.91"/>
          <path id="_패스_1202-3" data-name="패스 1202-3" class="cls-3" d="M13.13,138.24c12.42-13.03,27.31-23.77,42.98-32.55,1.38,2.64,2.76,5.29,3.88,8.05-7.97,4.95-12.57,15.38-16.82,23.43-2.23,4.22-4.47,8.41-6.93,12.49-1.35,0-2.7-.11-4.04-.32-6.62-1.05-15.12-5.61-19.06-11.11"/>
          <path id="_패스_1203-3" data-name="패스 1203-3" class="cls-3" d="M49.58,96.92c2.15,2.29,4.07,4.79,5.74,7.46-17.61,9.49-29.09,18.54-43.34,32.5-4.93-5.53-8.2-13.58-8.01-21.02,9.67-9.06,17.49-11.39,29.92-14.19,5.37-1.07,10.63-2.65,15.69-4.74"/>
        </g>
      </g>
    </g>
    <g id="_그룹_518" data-name="그룹 518">
      <g class="cls-13">
        <g id="_그룹_445-4" data-name="그룹 445-4">
          <path id="_패스_1185-4" data-name="패스 1185-4" class="cls-6" d="M39.05,498.1c10.14-.39,20.06,3.05,27.78,9.64,7.99,7.02,12.87,16.92,13.58,27.54.73,10.5-2.78,20.85-9.75,28.74-7.27,8.21-17.56,13.12-28.52,13.62-21.8.93-40.31-15.81-41.58-37.59-.67-10.6,2.97-21.03,10.11-28.9,7.36-7.94,17.57-12.64,28.39-13.04"/>
          <path id="_패스_1186-4" data-name="패스 1186-4" class="cls-1" d="M71.17,529.08c2.22-.06,4.44.16,6.61.65.03.12.05.23.08.35.32,1.55,1.57,7.81.81,8.95-2.49-2.71-6.08-6.53-7.81-9.74l.31-.21Z"/>
          <path id="_패스_1187-4" data-name="패스 1187-4" class="cls-1" d="M70.68,515.45c.47.02.54,0,.88.37,2.36,2.59,4.82,8.74,5.81,12.05-2.08-.4-4.2-.59-6.32-.56.98-5.08.31-6.84-.34-11.69l-.02-.16Z"/>
          <path id="_패스_1188-4" data-name="패스 1188-4" class="cls-3" d="M65.01,518.11c1.84-.97,3.77-1.8,5.66-2.65l.02.16c.65,4.86,1.32,6.61.34,11.69-.37.1-.76.11-1.14.02-.87-.31-4.27-7.96-4.88-9.23"/>
          <path id="_패스_1189-4" data-name="패스 1189-4" class="cls-3" d="M58.93,504.69c3.44,1.11,8.89,6.47,11.26,9.21l-1.74.76c-1.38.62-2.72,1.31-4.06,2.02-1.62-2.82-4.65-8.94-5.46-11.99"/>
          <path id="_패스_1190-4" data-name="패스 1190-4" class="cls-3" d="M63.53,518.75c.55.36,3.95,7.88,4.54,9.01-2.04.38-4.04.96-5.96,1.76l-.33.1c-.77-.69-3.24-6.46-3.93-7.83,1.92-.98,3.8-1.98,5.67-3.05"/>
          <path id="_패스_1191-4" data-name="패스 1191-4" class="cls-3" d="M57.67,506.24c1.07,1.35,4.45,9.15,5.43,11.17l-6.04,3.12c-1.68-2.61-3.51-5.13-5.47-7.54,2.84-1.36,5.02-3.79,6.09-6.75"/>
          <path id="_패스_1192-4" data-name="패스 1192-4" class="cls-1" d="M3.96,532.96c-.19,7.44,3.08,15.48,8.01,21.02-1.2,1.34-2.51,2.58-3.78,3.85-4.51-6.77-6.2-15.41-5.66-23.44.45-.5.93-.98,1.43-1.43"/>
          <path id="_패스_1193-4" data-name="패스 1193-4" class="cls-3" d="M62.35,531.78c2.14-.96,4.37-1.73,6.66-2.28.96,1.57,2.06,3.03,3.15,4.51-1.22,3.04-3.78,9.48-6.41,11.4-.67-4.64-1.81-9.21-3.39-13.62"/>
          <path id="_패스_1194-4" data-name="패스 1194-4" class="cls-3" d="M35.32,500.3c7.17-.9,14.45.18,21.05,3.15-.85,3.37-2,5.89-5.09,7.71-.29.17-.6.33-.9.49-1.44-1.67-2.99-3.25-4.64-4.71-2.58-2.18-5.39-4.07-8.38-5.65-.7-.28-1.38-.61-2.04-.99"/>
          <path id="_패스_1195-4" data-name="패스 1195-4" class="cls-4" d="M37.35,501.29c1.73-.91,4.94-.37,6.76.21,1.62.45,3.09,1.31,4.27,2.5-.67,1.15-1.57,2.15-2.65,2.94-2.58-2.18-5.39-4.07-8.38-5.65"/>
          <path id="_패스_1196-4" data-name="패스 1196-4" class="cls-1" d="M9.25,559.31c1.35-1.26,2.6-2.63,3.88-3.96,3.95,5.51,12.45,10.06,19.06,11.11,1.34.2,2.69.31,4.04.32-1.61,2.73-3.48,5.31-5.58,7.69-8.72-2.33-16.31-7.71-21.4-15.16"/>
          <path id="_패스_1197-4" data-name="패스 1197-4" class="cls-1" d="M72.15,534.01c2.15,2.51,4.48,4.98,6.45,7.63-1.54,11.53-6.88,20.24-16.08,27.29,3.29-7.45,3.94-15.48,3.22-23.52,2.64-1.92,5.2-8.36,6.41-11.4"/>
          <path id="_패스_1198-4" data-name="패스 1198-4" class="cls-3" d="M2.83,531.11c.88-4.27,2.4-8.39,4.51-12.2,5.23-9.08,13.65-15,23.67-17.67,1.23.39,2.43.86,3.63,1.33-.1.06-.19.13-.29.19-1.51.91-4.26,1.05-6.04,1.74-7.26,2.83-12.12,9.43-15.39,16.23l.27-.1c4.17-1.49,8.68-2.36,12.96-3.56,5.51-1.55,13.94-4.64,17.89-8.78,1.56,1.37,3.01,2.83,4.43,4.34-4.48,1.87-9.33,2.79-14.04,3.9-10.28,2.44-24.64,6.16-31.6,14.58"/>
          <path id="_패스_1199-4" data-name="패스 1199-4" class="cls-4" d="M34.64,502.56c3.42,1.38,6.6,3.31,9.39,5.72-3.94,4.14-12.37,7.22-17.89,8.78-4.27,1.2-8.78,2.08-12.96,3.56l-.27.1c3.27-6.8,8.12-13.4,15.39-16.23,1.78-.69,4.53-.83,6.04-1.74.1-.06.2-.12.29-.19"/>
          <path id="_패스_1200-4" data-name="패스 1200-4" class="cls-1" d="M64.36,547.67c.48,5.85-.61,17.79-4.5,22.44-2.82,3.38-12.4,5.32-16.65,5.59-3.51.21-7.03-.04-10.48-.73,2.03-2.71,3.64-5.58,5.52-8.37.86.3,1.8.33,2.68.08,7.77-1.35,14.43-7.04,19.2-13.05,1.52-1.91,2.83-3.97,4.23-5.97"/>
          <path id="_패스_1201-4" data-name="패스 1201-4" class="cls-3" d="M60.74,532.76c1.83,4.8,3.04,9.81,3.61,14.91-1.39,2-2.71,4.06-4.23,5.97-4.77,6-11.43,11.7-19.2,13.05-.88.25-1.82.22-2.68-.08,2.22-3.94,4.34-7.93,6.45-11.93,4.14-7.85,8.42-16.88,16.05-21.91"/>
          <path id="_패스_1202-4" data-name="패스 1202-4" class="cls-3" d="M13.13,555.35c12.42-13.03,27.31-23.77,42.98-32.55,1.38,2.64,2.76,5.29,3.88,8.05-7.97,4.95-12.57,15.38-16.82,23.43-2.23,4.22-4.47,8.41-6.93,12.49-1.35,0-2.7-.11-4.04-.32-6.62-1.05-15.12-5.61-19.06-11.11"/>
          <path id="_패스_1203-4" data-name="패스 1203-4" class="cls-3" d="M49.58,514.03c2.15,2.29,4.07,4.79,5.74,7.46-17.61,9.49-29.09,18.54-43.34,32.5-4.93-5.53-8.2-13.58-8.01-21.02,9.67-9.06,17.49-11.39,29.92-14.19,5.37-1.07,10.63-2.65,15.69-4.74"/>
        </g>
      </g>
    </g>
  </g>
</svg>